<?xml version="1.0" standalone="no"?><!DOCTYPE svg PUBLIC "-//W3C//DTD SVG 1.1//EN" "http://www.w3.org/Graphics/SVG/1.1/DTD/svg11.dtd"><svg t="1602751229525" class="icon" viewBox="0 0 1024 1024" version="1.1" xmlns="http://www.w3.org/2000/svg" p-id="8601" width="512" height="512" xmlns:xlink="http://www.w3.org/1999/xlink"><defs><style type="text/css"></style></defs><path d="M688.566327 310.747005l-61.72372-61.693314L318.224005 557.641886c-51.142511 51.112105-51.142511 134.02865 0 185.140755 51.112105 51.112105 134.02865 51.112105 185.171161 0l370.342322-370.28151c85.257789-85.196977 85.257789-223.360812 0-308.55779-85.196977-85.227383-223.391218-85.227383-308.588196 0L176.259449 452.681156l0.030406 0.030406c-0.273652 0.273652-0.57771 0.547304-0.820956 0.79055-118.856169 118.856169-118.856169 311.50715 0 430.332913 118.825763 118.825763 311.537556 118.825763 430.42413 0 0.273652-0.273652 0.486492-0.547304 0.79055-0.820956l0.030406 0.030406 265.411997-265.381591-61.754126-61.693314L544.959859 821.35116l-0.030406 0c-0.273652 0.243246-0.547304 0.547304-0.79055 0.79055-84.649673 84.619268-222.327016 84.619268-306.97669 0-84.619268-84.619268-84.619268-222.266204 0-306.885472 0.273652-0.273652 0.57771-0.547304 0.851362-0.79055l-0.030406-0.060812 388.889843-388.76822c51.051294-51.051294 134.119867-51.051294 185.171161 0 51.051294 51.051294 51.051294 134.119867 0 185.140755L441.671446 681.028515c-17.027233 17.027233-44.696487 17.027233-61.72372 0-16.996827-16.996827-16.996827-44.696487 0-61.693314L688.566327 310.747005z" p-id="8602" fill="#000000"></path></svg>