<?xml version="1.0" standalone="no"?><!DOCTYPE svg PUBLIC "-//W3C//DTD SVG 1.1//EN" "http://www.w3.org/Graphics/SVG/1.1/DTD/svg11.dtd"><svg t="1655454738074" class="icon" viewBox="0 0 1024 1024" version="1.1" xmlns="http://www.w3.org/2000/svg" p-id="767" width="512" height="512" xmlns:xlink="http://www.w3.org/1999/xlink"><defs><style type="text/css">@font-face { font-family: feedback-iconfont; src: url("//at.alicdn.com/t/font_1031158_u69w8yhxdu.woff2?t=1630033759944") format("woff2"), url("//at.alicdn.com/t/font_1031158_u69w8yhxdu.woff?t=1630033759944") format("woff"), url("//at.alicdn.com/t/font_1031158_u69w8yhxdu.ttf?t=1630033759944") format("truetype"); }
</style></defs><path d="M256 921.6c-10.24 0-17.066667-6.826667-17.066667-17.066667v-170.666666c0-54.613333 23.893333-105.813333 68.266667-143.36l78.506667-58.026667c6.826667-3.413333 6.826667-10.24 6.826666-17.066667s-3.413333-13.653333-10.24-20.48l-78.506666-71.68C262.826667 385.706667 238.933333 334.506667 238.933333 279.893333V119.466667c0-10.24 6.826667-17.066667 17.066667-17.066667s17.066667 6.826667 17.066667 17.066667v160.426666c0 44.373333 20.48 88.746667 54.613333 116.053334l78.506667 71.68c13.653333 10.24 20.48 27.306667 20.48 44.373333s-6.826667 34.133333-20.48 44.373333L327.68 614.4c-34.133333 34.133333-54.613333 75.093333-54.613333 119.466667v170.666666c0 10.24-6.826667 17.066667-17.066667 17.066667zM768 921.6c-10.24 0-17.066667-6.826667-17.066667-17.066667v-170.666666c0-44.373333-20.48-88.746667-54.613333-116.053334l-75.093333-58.026666c-13.653333-13.653333-20.48-27.306667-20.48-44.373334s6.826667-34.133333 20.48-44.373333l78.506666-71.68c34.133333-30.72 54.613333-71.68 54.613334-116.053333V119.466667c-3.413333-10.24 3.413333-17.066667 13.653333-17.066667s17.066667 6.826667 17.066667 17.066667v160.426666c0 54.613333-23.893333 105.813333-68.266667 143.36l-78.506667 71.68c-6.826667 6.826667-10.24 13.653333-10.24 20.48 0 6.826667 3.413333 13.653333 10.24 20.48l75.093334 58.026667c44.373333 37.546667 68.266667 88.746667 68.266666 143.36v170.666667c3.413333 6.826667-3.413333 13.653333-13.653333 13.653333zM512 477.866667c-3.413333 0-6.826667 0-10.24-3.413334l-119.466667-102.4c-6.826667-6.826667-6.826667-13.653333-6.826666-20.48 3.413333-6.826667 10.24-10.24 17.066666-10.24h238.933334c6.826667 0 13.653333 3.413333 17.066666 10.24 3.413333 6.826667 0 13.653333-3.413333 20.48l-119.466667 102.4c-6.826667 3.413333-10.24 3.413333-13.653333 3.413334z m-71.68-102.4l71.68 61.44 71.68-61.44h-143.36z" fill="#000000" p-id="768"></path><path d="M768 921.6c-3.413333 0-6.826667 0-10.24-3.413333L512 720.213333l-245.76 197.973334c-6.826667 6.826667-17.066667 3.413333-23.893333-3.413334-6.826667-6.826667-3.413333-17.066667 3.413333-23.893333l256-204.8c6.826667-3.413333 13.653333-3.413333 20.48 0l256 204.8c6.826667 6.826667 10.24 17.066667 3.413333 23.893333-3.413333 3.413333-10.24 6.826667-13.653333 6.826667zM750.933333 136.533333H273.066667c-37.546667 0-68.266667-30.72-68.266667-68.266666s30.72-68.266667 68.266667-68.266667h477.866666c37.546667 0 68.266667 30.72 68.266667 68.266667s-30.72 68.266667-68.266667 68.266666zM273.066667 34.133333c-20.48 0-34.133333 13.653333-34.133334 34.133334s13.653333 34.133333 34.133334 34.133333h477.866666c20.48 0 34.133333-13.653333 34.133334-34.133333s-13.653333-34.133333-34.133334-34.133334H273.066667z" fill="#000000" p-id="769"></path><path d="M750.933333 1024H273.066667c-37.546667 0-68.266667-30.72-68.266667-68.266667s30.72-68.266667 68.266667-68.266666h477.866666c37.546667 0 68.266667 30.72 68.266667 68.266666s-30.72 68.266667-68.266667 68.266667zM273.066667 921.6c-20.48 0-34.133333 13.653333-34.133334 34.133333s13.653333 34.133333 34.133334 34.133334h477.866666c20.48 0 34.133333-13.653333 34.133334-34.133334s-13.653333-34.133333-34.133334-34.133333H273.066667z" fill="#000000" p-id="770"></path></svg>