<?xml version="1.0" encoding="iso-8859-1"?>
<!-- Generator: Adobe Illustrator 18.0.0, SVG Export Plug-In . SVG Version: 6.00 Build 0)  -->
<!DOCTYPE svg PUBLIC "-//W3C//DTD SVG 1.1//EN" "http://www.w3.org/Graphics/SVG/1.1/DTD/svg11.dtd">
<svg version="1.1" id="Capa_1" xmlns="http://www.w3.org/2000/svg" xmlns:xlink="http://www.w3.org/1999/xlink" x="0px" y="0px"
	 viewBox="0 0 60 60" style="enable-background:new 0 0 60 60;" xml:space="preserve">
<g>
	<path fill="#000000" d="M47,34.051V0H11H1v60h10h35c7.168,0,13-5.832,13-13C59,40.17,53.701,34.564,47,34.051z M3,58V2h6v56H3z M39.078,58H11V2h34
		v32.038c-0.057,0.004-0.112,0.016-0.169,0.021c-0.195,0.017-0.387,0.046-0.579,0.072c-0.229,0.031-0.459,0.062-0.684,0.105
		c-0.193,0.037-0.381,0.083-0.571,0.128c-0.219,0.052-0.438,0.105-0.652,0.168c-0.187,0.055-0.37,0.117-0.553,0.18
		c-0.21,0.072-0.418,0.146-0.623,0.228c-0.179,0.072-0.355,0.15-0.531,0.23c-0.2,0.091-0.397,0.185-0.591,0.285
		c-0.171,0.089-0.339,0.182-0.505,0.278c-0.188,0.108-0.373,0.22-0.555,0.338c-0.162,0.104-0.321,0.211-0.477,0.322
		c-0.177,0.125-0.349,0.255-0.519,0.389c-0.15,0.118-0.298,0.237-0.442,0.361c-0.165,0.142-0.325,0.289-0.482,0.438
		c-0.137,0.13-0.273,0.261-0.405,0.397c-0.152,0.157-0.297,0.32-0.441,0.485c-0.124,0.142-0.248,0.283-0.365,0.43
		c-0.138,0.172-0.267,0.35-0.396,0.529c-0.109,0.152-0.22,0.302-0.323,0.459c-0.123,0.187-0.235,0.38-0.349,0.573
		c-0.093,0.159-0.189,0.317-0.276,0.48c-0.107,0.202-0.202,0.411-0.299,0.62c-0.076,0.165-0.157,0.327-0.227,0.496
		c-0.09,0.219-0.167,0.444-0.245,0.668c-0.059,0.167-0.123,0.332-0.175,0.502c-0.073,0.24-0.129,0.486-0.188,0.731
		c-0.039,0.163-0.086,0.322-0.12,0.488c-0.055,0.275-0.091,0.557-0.128,0.838c-0.019,0.142-0.047,0.28-0.062,0.423
		C33.023,46.13,33,46.562,33,47c0,0.399,0.025,0.792,0.06,1.183c0.008,0.091,0.017,0.181,0.027,0.271
		c0.043,0.382,0.098,0.76,0.173,1.131c0.009,0.044,0.021,0.086,0.03,0.129c0.072,0.339,0.16,0.672,0.258,1
		c0.024,0.082,0.048,0.163,0.073,0.244c0.113,0.353,0.239,0.699,0.381,1.038c0.026,0.063,0.056,0.124,0.083,0.186
		c0.13,0.297,0.271,0.589,0.422,0.874c0.035,0.067,0.068,0.134,0.105,0.2c0.176,0.319,0.365,0.629,0.566,0.93
		c0.045,0.067,0.091,0.132,0.137,0.198c0.185,0.266,0.378,0.526,0.581,0.777c0.037,0.046,0.072,0.093,0.109,0.138
		c0.232,0.279,0.477,0.546,0.731,0.804c0.061,0.062,0.123,0.122,0.185,0.182c0.246,0.241,0.5,0.474,0.765,0.695
		c0.022,0.018,0.042,0.038,0.064,0.056c0.283,0.233,0.579,0.451,0.881,0.66c0.072,0.05,0.144,0.099,0.217,0.147
		C38.926,57.896,39,57.951,39.078,58z M46,58c-6.065,0-11-4.935-11-11s4.935-11,11-11s11,4.935,11,11S52.065,58,46,58z"/>
	<path fill="#000000" d="M50.95,42.051c-0.391-0.391-1.023-0.391-1.414,0L46,45.586l-3.536-3.535c-0.391-0.391-1.023-0.391-1.414,0
		s-0.391,1.023,0,1.414L44.586,47l-3.536,3.535c-0.391,0.391-0.391,1.023,0,1.414c0.195,0.195,0.451,0.293,0.707,0.293
		s0.512-0.098,0.707-0.293L46,48.414l3.536,3.535c0.195,0.195,0.451,0.293,0.707,0.293s0.512-0.098,0.707-0.293
		c0.391-0.391,0.391-1.023,0-1.414L47.414,47l3.536-3.535C51.34,43.074,51.34,42.441,50.95,42.051z"/>
	<path fill="#000000" d="M40,10H16v14h24V10z M38,22H18V12h20V22z"/>
	<rect fill="#000000" x="21" y="14" width="14" height="2"/>
	<rect fill="#000000" x="21" y="18" width="14" height="2"/>
</g>
</svg>
