<?xml version="1.0" standalone="no"?><!DOCTYPE svg PUBLIC "-//W3C//DTD SVG 1.1//EN" "http://www.w3.org/Graphics/SVG/1.1/DTD/svg11.dtd"><svg t="1641561431900" class="icon" viewBox="0 0 1024 1024" version="1.1" xmlns="http://www.w3.org/2000/svg" p-id="9361" width="512" height="512" xmlns:xlink="http://www.w3.org/1999/xlink"><defs><style type="text/css"></style></defs><path d="M853.333333 810.666667 853.333333 298.666667 170.666667 298.666667 170.666667 810.666667 853.333333 810.666667M853.333333 128C900.266667 128 938.666667 166.4 938.666667 213.333333L938.666667 810.666667C938.666667 857.6 900.266667 896 853.333333 896L170.666667 896C123.733333 896 85.333333 857.6 85.333333 810.666667L85.333333 213.333333C85.333333 165.973333 123.733333 128 170.666667 128L853.333333 128M554.666667 725.333333 554.666667 640 768 640 768 725.333333 554.666667 725.333333M408.746667 554.666667 237.653333 384 358.4 384 499.2 524.8C515.84 541.44 515.84 568.746667 499.2 585.386667L359.253333 725.333333 238.506667 725.333333 408.746667 554.666667Z" p-id="9362" fill="#000000"></path></svg>