<?xml version="1.0" standalone="no"?><!DOCTYPE svg PUBLIC "-//W3C//DTD SVG 1.1//EN" "http://www.w3.org/Graphics/SVG/1.1/DTD/svg11.dtd"><svg t="1761114436910" class="icon" viewBox="0 0 1024 1024" version="1.1" xmlns="http://www.w3.org/2000/svg" p-id="8807" width="48" height="48" xmlns:xlink="http://www.w3.org/1999/xlink"><path d="M864 128l-64 0 0 64 32 0 0 512L576 704l0 256L192 960 192 192l32 0L224 128 160 128c-17.6 0-32 14.4-32 32l0 832c0 17.6 14.4 32 32 32l504 0 232-232L896 160C896 142.4 881.6 128 864 128zM640 960l0-192 192 0L640 960zM768 128l-128 0L640 64c0-35.2-28.8-64-64-64l-128 0c-35.2 0-64 28.8-64 64l0 64-128 0 0 128 512 0L768 128zM576 128l-128 0L448 64.128c0.032-0.032 0.064-0.064 0.128-0.128l127.776 0c0.032 0.032 0.096 0.064 0.128 0.128L576 128z" fill="#000000" p-id="8808"></path></svg>