<?xml version="1.0" standalone="no"?><!DOCTYPE svg PUBLIC "-//W3C//DTD SVG 1.1//EN" "http://www.w3.org/Graphics/SVG/1.1/DTD/svg11.dtd"><svg t="1637134014354" class="icon" viewBox="0 0 1024 1024" version="1.1" xmlns="http://www.w3.org/2000/svg" p-id="9411" width="512" height="512" xmlns:xlink="http://www.w3.org/1999/xlink"><defs><style type="text/css"></style></defs><path d="M512 64c51.3 0 99.5 20 135.8 56.2 20.6 20.6 36 45.1 45.4 71.8H330.9c9.4-26.7 24.8-51.2 45.4-71.8C412.5 84 460.7 64 512 64z m0-64C370.6 0 256 114.6 256 256h512C768 114.6 653.4 0 512 0z" p-id="9412" fill="#000000"></path><path d="M832 704v-98h160c17.7 0 32-14.3 32-32s-14.3-32-32-32H832V368c86 0 158.8-56.6 183.2-134.5 6.5-20.6-9-41.5-30.6-41.5-7 0-13.5 2.2-18.9 6.1-5.4 3.9-9.5 9.5-11.6 16.1-6 19.3-16.6 36.9-31.1 51.7-24.3 24.6-57.8 38.1-92.4 38.1H193.3c-34.6 0-68.1-13.4-92.4-38.1-14.6-14.8-25.1-32.4-31.1-51.7C65.7 201 53.2 192 39.3 192c-18.2 0-32 14.9-32 31.9 0 3.2 0.5 6.4 1.5 9.6C33.2 311.4 106 368 192 368v174H32c-17.7 0-32 14.3-32 32 0 8.8 3.6 16.8 9.4 22.6 5.8 5.8 13.8 9.4 22.6 9.4h160v98c-86 0-158.8 56.6-183.2 134.5-6.5 20.6 9 41.5 30.6 41.5 7 0 13.5-2.2 18.9-6.2 5.4-3.9 9.5-9.5 11.6-16.1 6-19.3 16.6-36.9 31.1-51.7 24.3-24.6 57.8-38.1 92.4-38.1h5.1C228 914.1 357.2 1024 512 1024c88.4 0 168.4-35.8 226.3-93.7 43.5-43.5 74.6-99.6 87.3-162.3h5.1c34.6 0 68.1 13.4 92.4 38.1 14.6 14.8 25.1 32.4 31.1 51.7 4.1 13.3 16.5 22.3 30.5 22.3 18.2 0 32-14.9 32-31.9 0-3.1-0.5-6.4-1.5-9.6C990.8 760.6 918 704 832 704z m-64 0c0 21.8-2.7 43.3-8 64-3.1 12.1-7.1 24-12.1 35.6-12.9 30.5-31.4 57.9-54.9 81.4-23.5 23.5-50.9 42-81.4 54.9-0.2 0.1-0.4 0.2-0.7 0.3-31.8 13.4-67-10.3-67-44.8V480c0-8.8-3.6-16.8-9.4-22.6-6-6-14.2-9.6-23.4-9.4-17.5 0.4-31.3 15.1-31.3 32.6v414.7c0 34.5-35.1 58.2-67 44.8-0.2-0.1-0.4-0.2-0.7-0.3-30.2-12.8-57.6-31.3-81.1-54.8-23.5-23.5-42-50.9-54.9-81.4-4.9-11.6-8.9-23.5-12.1-35.6-5.3-20.8-8-42.2-8-64V368h512v336z" p-id="9413" fill="#000000"></path></svg>