<svg xmlns="http://www.w3.org/2000/svg" height="512pt" version="1.1" viewBox="0 -51 512 512" width="512pt">
<g id="layer1">
<path d="M 0 0 L 0 410 L 512 410 L 512 0 Z M 482 380 L 30 380 L 30 30 L 482 30 Z M 482 380 " style=" stroke:none;fill-rule:nonzero;fill:#000000;fill-opacity:1;" />
<path d="M 180.375 310 L 121.214844 310 L 214.105469 217.105469 L 192.894531 195.894531 L 100 288.785156 L 100 229.625 L 70 229.625 L 70 340 L 180.375 340 Z M 180.375 310 " style=" stroke:none;fill-rule:nonzero;fill:#000000;fill-opacity:1;" />
<path d="M 319.105469 214.105469 L 412 121.214844 L 412 180.375 L 442 180.375 L 442 70 L 331.625 70 L 331.625 100 L 390.785156 100 L 297.894531 192.894531 Z M 319.105469 214.105469 " style=" stroke:none;fill-rule:nonzero;fill:#000000;fill-opacity:1;" />
</g>
</svg>
