<?xml version="1.0" standalone="no"?><!DOCTYPE svg PUBLIC "-//W3C//DTD SVG 1.1//EN" "http://www.w3.org/Graphics/SVG/1.1/DTD/svg11.dtd"><svg t="1630411117653" class="icon" viewBox="0 0 1024 1024" version="1.1" xmlns="http://www.w3.org/2000/svg" p-id="4795" width="512" height="512" xmlns:xlink="http://www.w3.org/1999/xlink"><defs><style type="text/css"></style></defs><path d="M840.533333 938.666667H183.466667C128 938.666667 85.333333 896 85.333333 840.533333V183.466667C85.333333 128 128 85.333333 183.466667 85.333333h354.133333c12.8 0 21.333333 8.533333 21.333333 21.333334s-8.533333 21.333333-21.333333 21.333333H183.466667C151.466667 128 128 151.466667 128 183.466667v659.2C128 872.533333 151.466667 896 183.466667 896h659.2c29.866667 0 55.466667-23.466667 55.466666-55.466667V490.666667c0-12.8 8.533333-21.333333 21.333334-21.333334s21.333333 8.533333 21.333333 21.333334v349.866666C938.666667 896 896 938.666667 840.533333 938.666667z" p-id="4796" fill="#000000"></path><path d="M405.333333 640h-4.266666c-8.533333-2.133333-17.066667-10.666667-17.066667-19.2-8.533333-153.6 25.6-270.933333 102.4-349.866667 70.4-74.666667 157.866667-91.733333 196.266667-98.133333V106.666667c0-8.533333 4.266667-17.066667 12.8-19.2 8.533333-2.133333 17.066667-2.133333 23.466666 4.266666l213.333334 192c4.266667 4.266667 6.4 10.666667 6.4 14.933334s-2.133333 12.8-6.4 14.933333l-213.333334 192c-6.4 6.4-14.933333 6.4-23.466666 4.266667-8.533333-2.133333-12.8-10.666667-12.8-19.2v-85.333334c-42.666667 2.133333-153.6 25.6-258.133334 224-4.266667 6.4-10.666667 10.666667-19.2 10.666667zM725.333333 155.733333V192c0 12.8-8.533333 21.333333-21.333333 21.333333 0 0-108.8 2.133333-187.733333 85.333334-53.333333 57.6-83.2 136.533333-89.6 241.066666 134.4-202.666667 275.2-177.066667 281.6-177.066666 10.666667 2.133333 17.066667 10.666667 17.066666 21.333333v59.733333l160-145.066666L725.333333 155.733333z" p-id="4797" fill="#000000"></path></svg>