<?xml version="1.0" standalone="no"?><!DOCTYPE svg PUBLIC "-//W3C//DTD SVG 1.1//EN" "http://www.w3.org/Graphics/SVG/1.1/DTD/svg11.dtd"><svg t="1621166645132" class="icon" viewBox="0 0 1024 1024" version="1.1" xmlns="http://www.w3.org/2000/svg" p-id="3766" width="512" height="512" xmlns:xlink="http://www.w3.org/1999/xlink"><defs><style type="text/css"></style></defs><path d="M512.10986 0.000171A405.329956 405.329956 0 0 0 321.818112 763.385809a18.261181 18.261181 0 0 1 9.727919 16.213198v79.70067a89.940584 89.940584 0 0 0 89.940584 89.940583h6.997275v12.117233a62.122149 62.122149 0 0 0 63.14614 62.634144h40.959659a62.122149 62.122149 0 0 0 61.951484-61.951483v-12.117233H601.709113a89.940584 89.940584 0 0 0 89.769919-89.940584v-79.871334a18.261181 18.261181 0 0 1 9.727918-16.213198A405.329956 405.329956 0 0 0 512.10986 0.000171z m31.231739 962.039983a10.75191 10.75191 0 0 1-10.75191 10.75191h-40.959659a10.75191 10.75191 0 0 1-10.75191-10.75191v-12.117233h62.463479zM601.709113 898.552683H422.681271a38.570345 38.570345 0 0 1-38.229014-34.133049h255.997866a38.570345 38.570345 0 0 1-38.74101 34.133049z m76.628695-180.393164h-3.071975a69.290089 69.290089 0 0 0-34.133049 59.562171v32.597061h-102.399146v-56.660861a18.773177 18.773177 0 0 1 11.093241-17.066524c16.042533-7.679936 59.050175-28.159765 59.050174-70.996742 0-55.295539-57.343522-55.295539-88.233931-55.295539a133.289556 133.289556 0 0 1-38.39968-2.901309v-1.023992c0-7.509271 11.434571-12.117232 38.74101-20.309164 34.133049-10.239915 86.697944-25.770452 86.697944-85.332622S550.50954 426.663282 512.10986 416.594032c-18.773177-4.778627-44.372964-11.263906-44.372964-19.285172v-1.023992c0-1.023991 13.482554-7.850601 42.666311-5.802618a25.599787 25.599787 0 1 0 3.58397-51.199573c-39.765002-2.730644-68.266098 4.778627-84.137965 22.527812a49.322256 49.322256 0 0 0-13.311889 36.693027c0 46.762277 48.298264 58.708844 82.943308 68.266098 42.154315 10.75191 57.172857 17.066524 57.172857 34.133049s-11.946567 24.575795-50.175581 36.010367C474.734171 546.128953 431.043868 559.440842 431.043868 606.373784c0 55.295539 57.343522 55.295539 88.233932 55.295539a133.289556 133.289556 0 0 1 37.034358 3.071975v1.023991c0 1.023991 0 10.581245-29.866418 24.917126a70.484746 70.484746 0 0 0-40.106332 63.14614v59.22084h-102.399147v-32.938392a69.290089 69.290089 0 0 0-34.133049-59.56217h-3.24264a354.301047 354.301047 0 1 1 332.285231 0z" p-id="3767" fill="#000000"></path></svg>