<?xml version="1.0" encoding="iso-8859-1"?>
<!-- Generator: Adobe Illustrator 16.0.0, SVG Export Plug-In . SVG Version: 6.00 Build 0)  -->
<!DOCTYPE svg PUBLIC "-//W3C//DTD SVG 1.1//EN" "http://www.w3.org/Graphics/SVG/1.1/DTD/svg11.dtd">
<svg version="1.1" id="Capa_1" xmlns="http://www.w3.org/2000/svg" xmlns:xlink="http://www.w3.org/1999/xlink" x="0px" y="0px"
	 width="468.067px" height="468.067px" viewBox="0 0 468.067 468.067" style="enable-background:new 0 0 468.067 468.067;"
	 xml:space="preserve">
<g>
	<path fill="#000000" d="M431.38,0.225H36.685C16.458,0.225,0,16.674,0,36.898v394.268c0,20.221,16.458,36.677,36.685,36.677H431.38
		c20.232,0,36.688-16.456,36.688-36.677V36.898C468.062,16.668,451.606,0.225,431.38,0.225z M406.519,41.969
		c8.678,0,15.711,7.04,15.711,15.72c0,8.683-7.033,15.717-15.711,15.717c-8.688,0-15.723-7.04-15.723-15.717
		C390.796,49.009,397.83,41.969,406.519,41.969z M350.189,41.969c8.688,0,15.723,7.04,15.723,15.72
		c0,8.683-7.034,15.717-15.723,15.717c-8.684,0-15.711-7.04-15.711-15.717C334.479,49.009,341.513,41.969,350.189,41.969z
		 M426.143,112.429v143.519H41.919V112.429H426.143z M41.919,425.924V272.09h384.224v153.84H41.919V425.924z"/>
</g>
</svg>
