<?xml version="1.0" standalone="no"?><!DOCTYPE svg PUBLIC "-//W3C//DTD SVG 1.1//EN" "http://www.w3.org/Graphics/SVG/1.1/DTD/svg11.dtd"><svg t="1627979077351" class="icon" viewBox="0 0 1127 1024" version="1.1" xmlns="http://www.w3.org/2000/svg" p-id="8220" width="563.5" height="512" xmlns:xlink="http://www.w3.org/1999/xlink"><defs><style type="text/css"></style></defs><path d="M51.2 102.4l1024 0 0 51.2-1024 0 0-51.2Z" p-id="8221" fill="#000000"></path><path d="M102.4 0l921.6 0 0 51.2-921.6 0 0-51.2Z" p-id="8222" fill="#000000"></path><path d="M763.3408 602.368c-4.4032-6.912-13.2608-8.5504-19.8656-3.8912l-141.4656 99.4816c-3.2768 2.304-7.7312 1.3824-9.7792-2.1504L425.5232 407.8592C421.5296 400.896 415.1296 400.8448 411.392 408.0128L102.2976 901.632c-3.7376 7.2192-0.3072 13.0048 7.6288 13.0048l903.9872 0c7.68 0 10.8032-5.5296 6.4512-12.3392L763.3408 602.368z" p-id="8223" fill="#000000"></path><path d="M896 384m-76.8 0a1.5 1.5 0 1 0 153.6 0 1.5 1.5 0 1 0-153.6 0Z" p-id="8224" fill="#000000"></path><path d="M0 211.4048l0 805.9904C0 1021.0304 3.2256 1024 7.2192 1024L1119.232 1024C1123.1744 1024 1126.4 1021.0304 1126.4 1017.3952L1126.4 211.4048C1126.4 207.7696 1123.1744 204.8 1119.232 204.8L7.2192 204.8C3.2256 204.8 0 207.7696 0 211.4048zM51.2 256l1024 0 0 716.8L51.2 972.8 51.2 256z" p-id="8225" fill="#000000"></path></svg>