<?xml version="1.0" encoding="UTF-8"?><svg width="48" height="48" viewBox="0 0 48 48" fill="none" xmlns="http://www.w3.org/2000/svg"><path d="M30 6H9C7.34315 6 6 7.34315 6 9V39C6 40.6569 7.34315 42 9 42H39C40.6569 42 42 40.6569 42 39V19" stroke="#000000" stroke-width="4" stroke-linecap="round" stroke-linejoin="round"/><path d="M6 35L16.6931 25.198C17.4389 24.5143 18.5779 24.4953 19.3461 25.1538L32 36" stroke="#000000" stroke-width="4" stroke-linecap="round" stroke-linejoin="round"/><path d="M28 31L32.7735 26.2265C33.4772 25.5228 34.5914 25.4436 35.3877 26.0408L42 31" stroke="#000000" stroke-width="4" stroke-linecap="round" stroke-linejoin="round"/><path d="M37 18L37 6" stroke="#000000" stroke-width="4" stroke-linecap="round" stroke-linejoin="round"/><path d="M32 11L37 6L42 11" stroke="#000000" stroke-width="4" stroke-linecap="round" stroke-linejoin="round"/></svg>