<?xml version="1.0" standalone="no"?><!DOCTYPE svg PUBLIC "-//W3C//DTD SVG 1.1//EN" "http://www.w3.org/Graphics/SVG/1.1/DTD/svg11.dtd"><svg t="1602830177948" class="icon" viewBox="0 0 1024 1024" version="1.1" xmlns="http://www.w3.org/2000/svg" p-id="38669" width="512" height="512" xmlns:xlink="http://www.w3.org/1999/xlink"><defs><style type="text/css"></style></defs><path d="M77.810668 948.860672c7.153934 5.38873 14.308891 8.942673 23.207561 8.942673 17.886369 1.788739 561.092092 1.788739 566.414307 1.788739l3.576455 0c10.775414 0 17.886369-5.343705 23.252587-14.286378 5.365194-8.942673 7.153934-17.886369 7.153934-26.807552L701.415512 553.978067l0-53.571103 0 0c5.365194 37.516452 12.476149 75.011414 17.842367 112.549356 7.197936 42.88267 14.308891 85.786829 21.463848 128.646985 7.153934 41.09393 14.263865 80.421634 19.631106 121.493052 3.576455 21.441335 7.197936 41.116443 10.731412 62.557778 1.787716 19.652596 12.519128 30.362518 30.361495 33.938973l126.902248 0c7.110955 0 14.308891-1.788739 21.419845-8.942673 5.366218-7.132444 8.942673-14.286378 8.942673-21.440311l0-12.498662c-1.787716-14.287401-1.787716-30.362518-3.576455-44.670385-3.577478-26.786063-7.153934-55.381331-10.68741-82.187861-3.620457-23.229051-7.197936-46.437635-8.986675-71.477938-3.577478-26.78504-7.110955-55.402821-10.68741-82.186837-3.577478-23.230074-7.197936-46.438659-8.986675-71.478961-3.533476-26.806529-7.109931-55.402821-10.68741-82.186837-3.576455-23.229051-7.109931-46.459125-8.942673-71.477938-3.576455-26.806529-7.153934-55.402821-10.68741-82.187861-3.576455-23.229051-7.153934-46.459125-8.942673-71.477938-3.620457-26.806529-7.153934-55.402821-10.731412-82.186837-3.576455-25.01779-7.153934-50.015114-10.68741-75.055416-1.788739-12.498662-5.409197-21.441335-16.096607-30.384008-5.365194-3.554966-10.731412-3.554966-17.886369-5.343705L97.440751 64.408939c-5.322216 1.788739-8.899694 1.788739-14.308891 3.577478C72.444451 75.138304 65.290517 84.059488 65.290517 96.579639l0 829.073472c1.788739 10.709923 3.577478 17.886369 12.520151 23.229051L77.810668 948.860672zM776.448416 103.733573l16.096607 0 12.476149 0c3.577478 0 5.409197 1.76725 5.409197 5.344728 1.788739 17.886369 5.322216 37.516452 7.110955 55.380308 5.365194 41.116443 10.730389 82.20935 16.096607 123.281791 5.365194 41.11542 10.68741 82.20935 16.053628 123.281791 5.409197 41.11542 10.731412 82.20935 16.096607 125.090996 5.322216 41.09393 10.731412 82.187861 16.09763 123.30328 5.321192 41.09393 10.68741 82.166371 16.096607 123.281791 5.321192 41.09393 10.68741 82.20935 16.010649 123.281791 0 5.365194 1.787716 8.942673 1.787716 14.307867 0 1.788739 0 3.577478-3.533476 3.577478l-30.361495 0c-3.577478 0-3.577478-1.788739-3.577478-5.387707-1.788739-17.84339-5.409197-37.516452-7.197936-55.381331-5.322216-41.071418-10.68741-82.186837-16.010649-123.280768-5.409197-41.116443-10.774391-82.187861-16.096607-123.281791-5.365194-41.116443-10.774391-82.187861-16.096607-125.07053-5.365194-41.11542-10.68741-82.20935-16.096607-123.30328-5.366218-41.092907-10.68741-82.186837-16.053628-123.302257-5.409197-41.072441-10.731412-82.166371-16.096607-123.281791 0-5.344728-1.788739-8.942673-1.788739-14.287401C772.870938 103.733573 772.870938 103.733573 776.448416 103.733573L776.448416 103.733573zM701.414489 103.733573l28.573779 0c3.577478 0 5.365194 1.76725 5.365194 5.344728 3.577478 21.441335 5.366218 42.881646 8.942673 62.534242 5.366218 41.09393 10.68741 82.187861 16.053628 123.30328 5.409197 41.09393 10.731412 82.165348 16.096607 123.281791 5.365194 41.09393 10.731412 82.20935 16.096607 123.281791 5.322216 41.092907 10.68741 82.20935 17.886369 125.090996 5.322216 41.072441 10.68741 82.187861 16.053628 123.281791 5.365194 42.88267 12.519128 85.765339 17.842367 128.625496 0 3.598968 0 3.598968-3.533476 3.598968l-16.096607 0-12.476149 0c-3.620457 0-5.409197-1.788739-5.409197-5.365194-5.366218-37.516452-10.68741-76.844156-16.053628-114.360608-5.409197-41.09393-10.731412-82.20935-16.096607-123.281791-5.365194-41.09393-10.731412-82.20935-16.096607-123.281791-5.322216-41.092907-10.68741-82.20935-16.096607-123.30328-5.322216-41.092907-10.68741-82.186837-16.010649-125.069507-5.409197-41.116443-10.774391-82.187861-16.096607-123.281791-3.577478-25.01779-7.153934-51.826366-10.731412-76.844156C697.837011 103.733573 699.62575 103.733573 701.414489 103.733573L701.414489 103.733573zM358.3122 922.075633 233.285672 922.075633 108.172163 922.075633c-3.577478 0-5.322216 0-5.322216-5.365194l0-64.322981c0-3.577478 1.744737-5.366218 5.322216-5.366218l251.971755 0c3.577478 0 5.322216 1.788739 5.322216 5.366218l0 64.322981C363.721397 922.075633 361.889679 922.075633 358.3122 922.075633L358.3122 922.075633zM406.604066 104.715947l248.307296 0c5.409197 0 5.409197 1.787716 5.409197 5.387707l0 402.801972 0 291.233967c0 5.365194-1.788739 7.153934-7.197936 7.153934L404.815327 811.293527c-5.365194 0-5.365194-1.788739-5.365194-5.365194L399.450133 111.848391C399.450133 106.503663 401.238872 104.715947 406.604066 104.715947L406.604066 104.715947zM404.815327 847.02124l125.07053 0 125.026528 0c3.620457 0 5.409197 1.788739 5.409197 5.366218l0 64.322981c0 3.598968-1.788739 5.365194-5.409197 5.365194l-251.927753 0c-3.533476 0-5.322216-1.76725-5.322216-5.365194l0-64.322981C399.450133 848.809979 401.238872 847.02124 404.815327 847.02124L404.815327 847.02124zM108.172163 104.715947l248.394277 0c5.322216 0 5.322216 1.787716 5.322216 5.387707l0 694.03594c0 5.387707-1.74576 5.387707-5.322216 5.387707L108.172163 809.5273c-5.322216 0-5.322216-1.811252-5.322216-5.387707L102.849948 512.905626 102.849948 111.848391C102.849948 106.503663 102.849948 104.715947 108.172163 104.715947L108.172163 104.715947zM108.172163 104.715947" p-id="38670" fill="#000000"></path><path d="M300.466748 208.30114 163.488003 208.30114c-2.704598 0-2.704598 0-2.704598 3.620457l0 28.573779c0 3.577478 1.352811 5.344728 4.100388 5.344728l67.093071 0 68.489884 0c2.704598 0 4.100388 0 4.100388-5.344728l0-28.573779C303.171346 208.30114 303.171346 208.30114 300.466748 208.30114L300.466748 208.30114zM300.466748 208.30114" p-id="38671" fill="#000000"></path><path d="M300.466748 283.356556 163.488003 283.356556c-2.704598 0-2.704598 0-2.704598 3.620457l0 28.573779c0 3.533476 1.352811 5.344728 4.100388 5.344728l67.093071 0 68.489884 0c2.704598 0 4.100388 0 4.100388-5.344728l0-28.573779C303.171346 285.145295 303.171346 283.356556 300.466748 283.356556L300.466748 283.356556zM300.466748 283.356556" p-id="38672" fill="#000000"></path><path d="M300.466748 358.410949 163.488003 358.410949c-2.704598 0-2.704598 0-2.704598 3.576455l0 28.595268c0 3.555989 1.352811 5.344728 4.100388 5.344728l67.093071 0 68.489884 0c2.704598 0 4.100388 0 4.100388-5.344728L304.567135 361.987405C303.171346 360.221178 303.171346 358.410949 300.466748 358.410949L300.466748 358.410949zM300.466748 358.410949" p-id="38673" fill="#000000"></path><path d="M600.730369 208.30114 463.794603 208.30114c-2.792603 0-2.792603 0-2.792603 3.620457l0 28.573779c0 3.577478 1.39579 5.344728 4.14439 5.344728l67.093071 0 68.489884 0c2.705622 0 4.101411 0 4.101411-5.344728l0-28.573779C603.434967 208.30114 603.434967 208.30114 600.730369 208.30114L600.730369 208.30114zM600.730369 208.30114" p-id="38674" fill="#000000"></path><path d="M600.730369 283.356556 463.794603 283.356556c-2.792603 0-2.792603 0-2.792603 3.620457l0 28.573779c0 3.533476 1.39579 5.344728 4.14439 5.344728l67.093071 0 68.489884 0c2.705622 0 4.101411 0 4.101411-5.344728l0-28.573779C603.434967 285.145295 603.434967 283.356556 600.730369 283.356556L600.730369 283.356556zM600.730369 283.356556" p-id="38675" fill="#000000"></path><path d="M600.730369 358.410949 463.794603 358.410949c-2.792603 0-2.792603 0-2.792603 3.576455l0 28.595268c0 3.555989 1.39579 5.344728 4.14439 5.344728l67.093071 0 68.489884 0c2.705622 0 4.101411 0 4.101411-5.344728L604.830757 361.987405C603.434967 360.221178 603.434967 358.410949 600.730369 358.410949L600.730369 358.410949zM600.730369 358.410949" p-id="38676" fill="#000000"></path></svg>