<?xml version="1.0" standalone="no"?><!DOCTYPE svg PUBLIC "-//W3C//DTD SVG 1.1//EN" "http://www.w3.org/Graphics/SVG/1.1/DTD/svg11.dtd"><svg t="1629376644691" class="icon" viewBox="0 0 1024 1024" version="1.1" xmlns="http://www.w3.org/2000/svg" p-id="4940" width="512" height="512" xmlns:xlink="http://www.w3.org/1999/xlink"><defs><style type="text/css"></style></defs><path d="M917.792 357.088c-22.208-30.304-53.184-65.696-87.168-99.712s-69.408-64.96-99.712-87.168c-51.584-37.824-76.576-42.208-90.912-42.208l-368 0c-44.128 0-80 35.904-80 80l0 736c0 44.096 35.872 80 80 80l608 0c44.096 0 80-35.904 80-80l0-496c0-14.336-4.384-39.36-42.208-90.912zM785.376 302.624c30.688 30.688 54.784 58.4 72.576 81.376l-153.952 0 0-153.952c22.976 17.792 50.688 41.888 81.376 72.576l0 0zM896 944c0 8.672-7.328 16-16 16l-608 0c-8.672 0-16-7.328-16-16l0-736c0-8.672 7.328-16 16-16 0 0 367.968 0 368 0l0 224c0 17.664 14.336 32 32 32l224 0 0 496z" p-id="4941" fill="#000000"></path><path d="M602.912 42.208c-51.584-37.824-76.576-42.208-90.912-42.208l-368 0c-44.096 0-80 35.872-80 80l0 736c0 38.624 27.52 70.944 64 78.4l0-814.4c0-8.672 7.328-16 16-16l486.88 0c-9.632-7.936-19.04-15.264-27.936-21.792z" p-id="4942" fill="#000000"></path></svg>