<?xml version="1.0" standalone="no"?><!DOCTYPE svg PUBLIC "-//W3C//DTD SVG 1.1//EN" "http://www.w3.org/Graphics/SVG/1.1/DTD/svg11.dtd"><svg t="1603888571887" class="icon" viewBox="0 0 1228 1024" version="1.1" xmlns="http://www.w3.org/2000/svg" p-id="3102" width="614" height="512" xmlns:xlink="http://www.w3.org/1999/xlink"><defs><style type="text/css"></style></defs><path d="M1184.935485 708.525511H997.851182v-191.894458a43.700765 43.700765 0 0 0-43.189046-44.263655 43.700765 43.700765 0 0 0-43.137874 44.263655v191.894458h-177.566339a43.700765 43.700765 0 0 0-43.137874 44.314827c0 24.460147 19.29179 44.263655 43.189046 44.263655h177.515167v182.069462c0 24.460147 19.29179 44.263655 43.137874 44.263655a43.700765 43.700765 0 0 0 43.189046-44.263655v-182.069462h187.084303a43.700765 43.700765 0 0 0 43.189047-44.263655 43.700765 43.700765 0 0 0-43.189047-44.314827z m-43.137874-551.120884H586.429464l-29.986708-95.793713A86.429264 86.429264 0 0 0 474.209585 0h-387.882665C38.634751 0 0 39.607016 0 88.52731v846.38249C0 983.778922 38.634751 1023.43711 86.378092 1023.43711h561.252911a43.700765 43.700765 0 0 0 43.189046-44.263655 43.700765 43.700765 0 0 0-43.189046-44.314827H86.32692V246.034281h1055.419519v182.01829c0 24.511319 19.342961 44.314827 43.189046 44.314827A43.700765 43.700765 0 0 0 1228.124532 428.052571V246.034281c0-48.971466-38.634751-88.578482-86.378093-88.578482z m-1055.419519 0V88.629654h387.882665l21.441007 68.877317h-409.374844z" p-id="3103" fill="#000000"></path></svg>