<?xml version="1.0" standalone="no"?><!DOCTYPE svg PUBLIC "-//W3C//DTD SVG 1.1//EN" "http://www.w3.org/Graphics/SVG/1.1/DTD/svg11.dtd"><svg t="1602822786258" class="icon" viewBox="0 0 1024 1024" version="1.1" xmlns="http://www.w3.org/2000/svg" p-id="36748" width="512" height="512" xmlns:xlink="http://www.w3.org/1999/xlink"><defs><style type="text/css"></style></defs><path d="M742.4 921.6l-512 0c-14.1312 0-25.6-11.4688-25.6-25.6s11.4688-25.6 25.6-25.6l512 0c14.1312 0 25.6 11.4688 25.6 25.6s-11.4688 25.6-25.6 25.6z" p-id="36749" fill="#000000"></path><path d="M844.8 153.6c-14.1312 0-25.6 11.4688-25.6 25.6l0 768c0 14.1312-11.4688 25.6-25.6 25.6l-563.2 0c-42.3424 0-76.8-34.4576-76.8-76.8s34.4576-76.8 76.8-76.8l460.8 0c42.3424 0 76.8-34.4576 76.8-76.8l0-614.4c0-42.3424-34.4576-76.8-76.8-76.8l-512 0c-42.3424 0-76.8 34.4576-76.8 76.8l0 768c0 70.5536 57.4464 128 128 128l563.2 0c42.3424 0 76.8-34.4576 76.8-76.8l0-768c0-14.1312-11.4688-25.6-25.6-25.6zM179.2 102.4l512 0c14.1312 0 25.6 11.4688 25.6 25.6l0 614.4c0 14.1312-11.4688 25.6-25.6 25.6l-460.8 0c-28.7744 0-55.3984 9.5744-76.8 25.6512l0-665.6512c0-14.1312 11.4688-25.6 25.6-25.6z" p-id="36750" fill="#000000"></path></svg>