<?xml version="1.0" standalone="no"?><!DOCTYPE svg PUBLIC "-//W3C//DTD SVG 1.1//EN" "http://www.w3.org/Graphics/SVG/1.1/DTD/svg11.dtd"><svg t="1602829997546" class="icon" viewBox="0 0 1024 1024" version="1.1" xmlns="http://www.w3.org/2000/svg" p-id="37148" width="512" height="512" xmlns:xlink="http://www.w3.org/1999/xlink"><defs><style type="text/css"></style></defs><path d="M822.016 64H204q-28.992 0-50.496 20.992T132 136v752.992q0 28.992 21.504 50.496t50.496 21.504h619.008q28.992 0 50.496-21.504t21.504-50.496V136q0-30.016-21.504-51.008T822.016 64zM491.008 136v208.992l-8.992-8-32.992-34.016q-8-7.008-18.016-7.008t-16.992 7.008l-44 44V135.968h120.992z m-192.992 0v276.992q0 15.008 10.016 24.992t24.992 10.016q36.992 0 63.008-24.992l35.008-35.008 35.008 34.016q24.992 24.992 60 26.016h0.992q15.008 0 25.504-10.016t10.496-24.992V136.032h260v624H205.024v-624h92.992zM204 888.992V832h618.016v56.992H204z" p-id="37149" fill="#000000"></path></svg>