<?xml version="1.0" standalone="no"?><!DOCTYPE svg PUBLIC "-//W3C//DTD SVG 1.1//EN" "http://www.w3.org/Graphics/SVG/1.1/DTD/svg11.dtd"><svg t="1637130589924" class="icon" viewBox="0 0 1024 1024" version="1.1" xmlns="http://www.w3.org/2000/svg" p-id="12363" width="512" height="512" xmlns:xlink="http://www.w3.org/1999/xlink"><defs><style type="text/css"></style></defs><path d="M24.380952 265.886178 902.094615 265.886178C942.428977 265.886178 975.238095 298.903371 975.238095 339.485775L975.238095 779.447155 999.619049 754.99187 853.333333 754.99187 877.714285 779.447155 877.714285 681.626016 877.714285 657.170731 853.333333 657.170731 170.666667 657.170731 146.285714 657.170731 146.285714 681.626016 146.285714 779.447155 170.666667 754.99187 121.955642 754.99187C81.590725 754.99187 48.761905 721.971868 48.761905 681.392275L48.761905 241.430895 24.380952 265.886178 24.380952 265.886178ZM24.380952 216.97561 0 216.97561 0 241.430895 0 681.392275C0 748.954229 54.630068 803.902438 121.955642 803.902438L170.666667 803.902438 195.047619 803.902438 195.047619 779.447155 195.047619 681.626016 170.666667 706.081301 853.333333 706.081301 828.952382 681.626016 828.952382 779.447155 828.952382 803.902438 853.333333 803.902438 999.619049 803.902438 1024 803.902438 1024 779.447155 1024 339.485775C1024 271.92663 969.395277 216.97561 902.094615 216.97561L24.380952 216.97561 24.380952 216.97561ZM755.809523 999.544715 780.190477 975.089431 243.809523 975.089431 268.190477 999.544715 268.190477 776.325203C268.190477 762.818923 257.274752 751.869918 243.809523 751.869918 230.344297 751.869918 219.428572 762.818923 219.428572 776.325203L219.428572 999.544715C219.428572 1013.050995 230.344297 1024 243.809523 1024L780.190477 1024C793.655703 1024 804.571428 1013.050995 804.571428 999.544715L804.571428 776.325203C804.571428 762.818923 793.655703 751.869918 780.190477 751.869918 766.725248 751.869918 755.809523 762.818923 755.809523 776.325203L755.809523 999.544715ZM207.238095 437.073171 524.190477 437.073171 524.190477 388.162603 207.238095 388.162603 207.238095 437.073171 207.238095 437.073171ZM219.428572 241.430895 219.428572 45.788618 195.047619 70.243903 828.952382 70.243903 804.571428 45.788618 804.571428 241.430933 853.333333 241.430933 853.333333 45.788618 853.333333 21.333333 828.952382 21.333333 195.047619 21.333333 170.666667 21.333333 170.666667 45.788618 170.666667 241.430895 219.428572 241.430895 219.428572 241.430895Z" p-id="12364" fill="#000000"></path></svg>