<svg width="512" height="512" xmlns="http://www.w3.org/2000/svg" xmlns:svg="http://www.w3.org/2000/svg">
 <g display="inline">
  <title>Layer 1</title>
  <path stroke="#000000" fill="#000000" stroke-width="30" stroke-dasharray="null" stroke-linejoin="null" stroke-linecap="null" d="m85.750002,73.846584l43.194363,360.590916l241.122963,0l43.057672,-361.684444l-327.374998,1.093528z" fill-opacity="0" id="svg_6"/>
 </g>
 <g display="inline">
  <title>Layer 1 copy</title>
  <path id="svg_1" d="m278.734806,211.081489l-25.954577,-4.596678l9.562217,-4.993052c5.259196,-2.746226 10.027709,-5.404751 10.596662,-5.907837c1.413302,-1.249639 -16.187262,-28.447523 -18.394639,-28.425008c-0.970333,0.011001 -7.731781,10.542547 -15.025414,23.405944c-7.346415,12.956287 -14.657734,22.823491 -16.392375,22.122467c-20.530561,-8.296065 -37.281946,-16.689857 -37.281946,-18.681204c0,-1.360192 6.441626,-13.493725 14.314808,-26.963432l14.314815,-24.490333l39.029834,0l39.029834,0l10.187868,16.112893l10.187953,16.112893l10.628269,-5.452618c7.367742,-3.779934 10.17318,-4.322708 9.144661,-1.769575c-9.05562,22.481975 -22.568035,48.696355 -24.969931,48.442064c-1.662917,-0.175921 -14.703002,-2.388389 -28.978031,-4.916514l-0.000008,-0.000008zm-121.04853,100.301702c-9.877208,-17.009348 -18.729478,-32.934982 -19.671623,-35.390403c-0.966907,-2.519616 1.850192,-11.523045 6.467384,-20.669546l8.180422,-16.205438l-8.362438,-4.939858c-11.12868,-6.573858 -6.992066,-8.598561 22.529168,-11.027127l23.331407,-1.919317l9.151668,24.180839c5.033491,13.299451 9.795749,25.898384 10.582909,27.997793c0.820922,2.189446 -3.107919,0.732693 -9.21387,-3.416409l-10.645019,-7.233539l-7.43104,14.344659c-4.086999,7.889694 -7.488988,15.223935 -7.559854,16.298312c-0.071034,1.074377 12.472696,2.303847 27.874729,2.732066l28.003626,0.778551l1.827516,20.484288c1.005176,11.266424 1.619826,20.634873 1.366026,20.818805c-0.253785,0.183748 -13.513894,1.179924 -29.466873,2.213472l-29.005467,1.879108l-17.958669,-30.926279l0,0.000023zm110.540841,30.053665c-16.956491,-25.592907 -17.251221,-23.689252 7.951467,-51.353217l16.178415,-17.758401l-1.718289,12.977292l-1.718366,12.9773l18.129745,0c9.97134,0 18.129837,-0.797417 18.129837,-1.771913c0,-0.974657 -5.532483,-11.921252 -12.294352,-24.32608c-6.761869,-12.404828 -12.268679,-23.594376 -12.237409,-24.86568c0.070206,-2.850622 35.51503,-26.389649 37.20008,-24.704623c0.667669,0.667677 7.245506,12.559246 14.617434,26.425987l13.403679,25.21188l-18.035023,29.09066c-9.91941,15.999665 -19.449767,30.651136 -21.178467,32.558624c-1.728899,1.907488 -11.395904,4.238849 -21.482319,5.180634c-19.252488,1.797909 -18.728389,1.364868 -21.551245,17.805095c-0.493994,2.877139 -6.254444,-3.65119 -15.395187,-17.447572l0,0.000015z" stroke-linecap="null" stroke-linejoin="null" stroke-dasharray="null" stroke-width="50" fill="#000000"/>
 </g>
</svg>
