<?xml version="1.0" standalone="no"?><!DOCTYPE svg PUBLIC "-//W3C//DTD SVG 1.1//EN" "http://www.w3.org/Graphics/SVG/1.1/DTD/svg11.dtd"><svg t="1633928568811" class="icon" viewBox="0 0 1024 1024" version="1.1" xmlns="http://www.w3.org/2000/svg" p-id="6018" width="512" height="512" xmlns:xlink="http://www.w3.org/1999/xlink"><defs><style type="text/css"></style></defs><path d="M682.666667 260.266667L661.333333 128H362.666667l-21.333334 132.266667-42.666666-6.4 25.6-149.333334c2.133333-10.666667 10.666667-17.066667 21.333333-17.066666h332.8c10.666667 0 19.2 8.533333 21.333333 17.066666l25.6 149.333334-42.666666 6.4z" p-id="6019" fill="#000000"></path><path d="M896 277.333333H128c-12.8 0-21.333333-8.533333-21.333333-21.333333s8.533333-21.333333 21.333333-21.333333h768c12.8 0 21.333333 8.533333 21.333333 21.333333s-8.533333 21.333333-21.333333 21.333333z" p-id="6020" fill="#000000"></path><path d="M746.666667 938.666667H277.333333c-10.666667 0-21.333333-8.533333-21.333333-19.2l-42.666667-661.333334c0-6.4 2.133333-10.666667 6.4-14.933333s8.533333-8.533333 14.933334-8.533333h554.666666c6.4 0 10.666667 2.133333 14.933334 6.4s6.4 10.666667 6.4 14.933333l-42.666667 661.333333c0 12.8-10.666667 21.333333-21.333333 21.333334z m-450.133334-42.666667H725.333333l40.533334-618.666667H258.133333l38.4 618.666667z" p-id="6021" fill="#000000"></path><path d="M584.533333 537.6c-6.4 0-14.933333-4.266667-19.2-10.666667L512 433.066667l-36.266667 66.133333c-6.4 10.666667-19.2 14.933333-29.866666 8.533333-10.666667-6.4-14.933333-19.2-8.533334-29.866666l40.533334-74.666667c6.4-10.666667 19.2-19.2 32-19.2s25.6 6.4 32 19.2l59.733333 102.4c6.4 10.666667 2.133333 23.466667-8.533333 29.866667 0 0-4.266667 2.133333-8.533334 2.133333zM646.4 695.466667h-125.866667c-12.8 0-21.333333-8.533333-21.333333-21.333334s8.533333-21.333333 21.333333-21.333333h115.2l-40.533333-68.266667c-6.4-10.666667-2.133333-23.466667 6.4-29.866666 10.666667-6.4 23.466667-2.133333 29.866667 6.4l46.933333 76.8c6.4 10.666667 6.4 25.6 0 36.266666-6.4 12.8-19.2 21.333333-32 21.333334zM458.666667 695.466667h-81.066667c-12.8 0-25.6-6.4-32-19.2s-6.4-25.6 0-36.266667l64-106.666667c6.4-10.666667 19.2-12.8 29.866667-8.533333 10.666667 6.4 12.8 19.2 8.533333 29.866667l-57.6 98.133333h70.4c12.8 0 21.333333 8.533333 21.333333 21.333333s-12.8 21.333333-23.466666 21.333334z" p-id="6022" fill="#000000"></path><path d="M550.4 725.333333c-6.4 0-10.666667-2.133333-14.933333-6.4l-29.866667-29.866666c-8.533333-8.533333-8.533333-21.333333 0-29.866667l29.866667-29.866667c8.533333-8.533333 21.333333-8.533333 29.866666 0 8.533333 8.533333 8.533333 21.333333 0 29.866667l-14.933333 14.933333 14.933333 14.933334c8.533333 8.533333 8.533333 21.333333 0 29.866666-4.266667 4.266667-8.533333 6.4-14.933333 6.4zM584.533333 537.6h-6.4l-42.666666-10.666667c-10.666667-2.133333-19.2-14.933333-14.933334-25.6 2.133333-10.666667 14.933333-17.066667 25.6-14.933333l21.333334 6.4 6.4-21.333333c2.133333-10.666667 14.933333-17.066667 25.6-14.933334 10.666667 2.133333 17.066667 14.933333 14.933333 25.6l-10.666667 42.666667c-2.133333 6.4-4.266667 10.666667-10.666666 12.8h-8.533334zM439.466667 605.866667c-8.533333 0-17.066667-6.4-21.333334-14.933334l-6.4-21.333333-21.333333 6.4c-10.666667 2.133333-23.466667-4.266667-25.6-14.933333-2.133333-10.666667 4.266667-23.466667 14.933333-25.6l42.666667-10.666667c6.4-2.133333 10.666667 0 17.066667 2.133333 4.266667 2.133333 8.533333 8.533333 10.666666 12.8l10.666667 42.666667c2.133333 10.666667-4.266667 23.466667-14.933333 25.6-4.266667-2.133333-4.266667-2.133333-6.4-2.133333z" p-id="6023" fill="#000000"></path></svg>