<?xml version="1.0" standalone="no"?><!DOCTYPE svg PUBLIC "-//W3C//DTD SVG 1.1//EN" "http://www.w3.org/Graphics/SVG/1.1/DTD/svg11.dtd"><svg t="1609209772514" class="icon" viewBox="0 0 1024 1024" version="1.1" xmlns="http://www.w3.org/2000/svg" p-id="3065" width="512" height="512" xmlns:xlink="http://www.w3.org/1999/xlink"><defs><style type="text/css"></style></defs><path d="M819.2 104.96H168.96c-45.1712 0-81.92 36.7488-81.92 81.92v650.24c0 45.1712 36.7488 81.92 81.92 81.92h650.24c45.1712 0 81.92-36.7488 81.92-81.92V186.88c0-45.1712-36.7488-81.92-81.92-81.92zM488.96 207.36v79.36c0 25.44896 20.63104 46.08 46.08 46.08s46.08-20.63104 46.08-46.08V207.36h43.52v176.64H366.08V207.36h122.88z m309.76 609.28H189.44V207.36h74.24v197.12c0 45.1712 36.7488 81.92 81.92 81.92h299.52c45.1712 0 81.92-36.7488 81.92-81.92V207.36h71.68v609.28z" p-id="3066" fill="#000000"></path></svg>