<?xml version="1.0" encoding="UTF-8"?><svg width="48" height="48" viewBox="0 0 48 48" fill="none" xmlns="http://www.w3.org/2000/svg"><path d="M6 9C6 7.34315 7.34315 6 9 6H34.2814L42 13.2065V39C42 40.6569 40.6569 42 39 42H9C7.34315 42 6 40.6569 6 39V9Z" fill="none" stroke="#000000" stroke-width="4" stroke-linejoin="round"/><path fill-rule="evenodd" clip-rule="evenodd" d="M24.0083 6L24 13.3846C24 13.7245 23.5523 14 23 14H15C14.4477 14 14 13.7245 14 13.3846L14 6" fill="none"/><path d="M24.0083 6L24 13.3846C24 13.7245 23.5523 14 23 14H15C14.4477 14 14 13.7245 14 13.3846L14 6H24.0083Z" stroke="#000000" stroke-width="4" stroke-linejoin="round"/><path d="M9 6H34.2814" stroke="#000000" stroke-width="4" stroke-linecap="round" stroke-linejoin="round"/><path d="M14 26H34" stroke="#000000" stroke-width="4" stroke-linecap="round" stroke-linejoin="round"/><path d="M14 34H24.0083" stroke="#000000" stroke-width="4" stroke-linecap="round" stroke-linejoin="round"/></svg>
