<?xml version="1.0" standalone="no"?><!DOCTYPE svg PUBLIC "-//W3C//DTD SVG 1.1//EN" "http://www.w3.org/Graphics/SVG/1.1/DTD/svg11.dtd"><svg t="1634653362644" class="icon" viewBox="0 0 1024 1024" version="1.1" xmlns="http://www.w3.org/2000/svg" p-id="2399" width="512" height="512" xmlns:xlink="http://www.w3.org/1999/xlink"><defs><style type="text/css"></style></defs><path d="M688 312v-48c0-4.4-3.6-8-8-8H296c-4.4 0-8 3.6-8 8v48c0 4.4 3.6 8 8 8h384c4.4 0 8-3.6 8-8zM296 400c-4.4 0-8 3.6-8 8v48c0 4.4 3.6 8 8 8h184c4.4 0 8-3.6 8-8v-48c0-4.4-3.6-8-8-8H296z" p-id="2400" fill="#000000"></path><path d="M440 852H208V148h560v344c0 4.4 3.6 8 8 8h56c4.4 0 8-3.6 8-8V108c0-17.7-14.3-32-32-32H168c-17.7 0-32 14.3-32 32v784c0 17.7 14.3 32 32 32h272c4.4 0 8-3.6 8-8v-56c0-4.4-3.6-8-8-8z" p-id="2401" fill="#000000"></path><path d="M885.7 903.5l-93.3-93.3C814.7 780.7 828 743.9 828 704c0-97.2-78.8-176-176-176s-176 78.8-176 176 78.8 176 176 176c35.8 0 69-10.7 96.8-29l94.7 94.7c1.6 1.6 3.6 2.3 5.6 2.3s4.1-0.8 5.6-2.3l31-31c3.1-3.1 3.1-8.1 0-11.2zM652 816c-61.9 0-112-50.1-112-112s50.1-112 112-112 112 50.1 112 112-50.1 112-112 112z" p-id="2402" fill="#000000"></path></svg>