<?xml version="1.0" standalone="no"?><!DOCTYPE svg PUBLIC "-//W3C//DTD SVG 1.1//EN" "http://www.w3.org/Graphics/SVG/1.1/DTD/svg11.dtd"><svg t="1630643879525" class="icon" viewBox="0 0 1024 1024" version="1.1" xmlns="http://www.w3.org/2000/svg" p-id="4410" width="512" height="512" xmlns:xlink="http://www.w3.org/1999/xlink"><defs><style type="text/css"></style></defs><path d="M810.666667 512V384h-170.666667a85.333333 85.333333 0 0 1-85.333333-85.333333V128H213.333333v384h597.333334zM128 512V128a85.333333 85.333333 0 0 1 85.333333-85.333333h444.330667L896 281.002667V512h85.333333v85.333333H42.666667v-85.333333h85.333333z m682.666667 170.666667h85.333333v213.333333a85.333333 85.333333 0 0 1-85.333333 85.333333H213.333333a85.333333 85.333333 0 0 1-85.333333-85.333333v-213.333333h85.333333v213.333333h597.333334v-213.333333zM640 145.664V298.666667h153.002667L640 145.664z" p-id="4411" fill="#000000"></path></svg>