<?xml version="1.0" standalone="no"?><!DOCTYPE svg PUBLIC "-//W3C//DTD SVG 1.1//EN" "http://www.w3.org/Graphics/SVG/1.1/DTD/svg11.dtd"><svg t="1637134995193" class="icon" viewBox="0 0 1026 1024" version="1.1" xmlns="http://www.w3.org/2000/svg" p-id="4928" width="513" height="512" xmlns:xlink="http://www.w3.org/1999/xlink"><defs><style type="text/css"></style></defs><path d="M1009.371429 943.542857l-248.685714-256c0 0-7.314286-7.314286-14.628571-7.314286 51.2-65.828571 87.771429-160.914286 87.771429-256C826.514286 190.171429 643.657143 0 409.6 0 190.171429 0 0 190.171429 0 424.228571s190.171429 424.228571 416.914286 424.228571c102.4 0 204.8-43.885714 270.628571-102.4l7.314286 7.314286 248.685714 256c14.628571 14.628571 43.885714 14.628571 58.514286 0C1031.314286 987.428571 1031.314286 965.485714 1009.371429 943.542857L1009.371429 943.542857zM416.914286 782.628571c-197.485714 0-351.085714-160.914286-351.085714-358.4S219.428571 65.828571 416.914286 65.828571c197.485714 0 351.085714 160.914286 351.085714 358.4S614.4 782.628571 416.914286 782.628571L416.914286 782.628571z" p-id="4929" fill="#000000"></path></svg>