<?xml version="1.0" standalone="no"?><!DOCTYPE svg PUBLIC "-//W3C//DTD SVG 1.1//EN" "http://www.w3.org/Graphics/SVG/1.1/DTD/svg11.dtd"><svg t="1637134516381" class="icon" viewBox="0 0 1024 1024" version="1.1" xmlns="http://www.w3.org/2000/svg" p-id="19374" width="512" height="512" xmlns:xlink="http://www.w3.org/1999/xlink"><defs><style type="text/css"></style></defs><path d="M993.31142 624.247465l-94.120714-73.598993c1.237983-11.349845 2.21797-24.617663 2.21797-38.655472s-1.023986-27.305627-2.21797-38.655471l94.206712-73.640994c17.493761-13.823811 22.313695-38.357476 11.135848-58.793196l-97.876662-169.341685c-10.709854-19.497733-34.729525-28.415612-56.617226-20.351721l-111.060481 44.58539c-21.24771-15.35979-43.561404-28.329613-66.645089-38.697471l-16.895769-117.800389C652.666077 16.895769 633.210343 0 610.212657 0h-196.263316c-22.997686 0-42.45342 16.895769-45.183383 38.869469l-16.937768 118.228383c-22.357694 10.111862-44.329394 22.869687-66.55909 38.741471l-111.358478-44.713389c-21.289709-8.319886-45.525378 0.469994-56.191231 20.009726l-98.004661 169.597682c-11.561842 19.541733-6.825907 44.885386 11.093849 59.049192l94.120713 73.556995c-1.49398 14.421803-2.21797 26.921632-2.21797 38.655471s0.72599 24.233669 2.133971 38.655472l-94.206712 73.684992C13.18682 638.157275 8.406885 662.68894 19.542733 683.12666l97.876662 169.341685c10.623855 19.455734 34.601527 28.329613 56.617226 20.351722l111.060481-44.585391c21.24771 15.317791 43.605404 28.287613 66.687088 38.697471l16.895769 117.75839c2.773962 22.399694 22.229696 39.295463 45.225382 39.295463h196.263317c22.997686 0 42.45342-16.895769 45.183382-38.869468l16.937769-118.184385c22.357694-10.111862 44.329394-22.869687 66.55909-38.74147l111.358477 44.713389c21.20571 8.233887 45.525378-0.469994 56.191232-20.009727l98.388655-170.195673c10.881851-19.965727 6.101917-44.499392-11.475843-58.451201z m-25.813648 37.545487l-101.63061 171.431656-122.15233-49.065329c-6.911906-2.773962-14.761798-1.705977-20.735716 2.729963-26.453638 19.797729-52.009289 34.687526-78.206931 45.397379a21.319709 21.319709 0 0 0-13.055822 16.725771l-21.545705 132.308192-199.123278-2.26197-18.645745-130.004222a21.409707 21.409707 0 0 0-13.055821-16.725771c-27.263627-11.177847-53.503269-26.409639-78.036933-45.269382a21.24571 21.24571 0 0 0-13.013823-4.437939c-2.687963 0-5.375927 0.469994-7.97789 1.535979L154.664885 831.558631l-97.876661-169.341685c-0.895988-1.663977-0.72599-3.583951 0.297996-4.39394l103.550584-80.936893a21.377708 21.377708 0 0 0 8.02189-19.455734c-2.261969-17.877756-3.285955-32.341558-3.285955-45.439379s1.065985-27.519624 3.285955-45.439379a21.337708 21.337708 0 0 0-8.02189-19.455734l-104.058578-84.860839 101.630611-171.431657 122.15233 49.06533c6.953905 2.815962 14.761798 1.749976 20.777716-2.729963 26.409639-19.839729 52.009289-34.687526 78.206931-45.397379a21.405707 21.405707 0 0 0 13.013822-16.725772l21.589705-132.35019 199.165277 2.303968 18.601745 130.046222a21.409707 21.409707 0 0 0 13.055822 16.725772c27.221628 11.135848 53.461269 26.36764 78.036933 45.269381 6.015918 4.607937 13.90981 5.717922 20.949713 2.857961l125.652283-47.401352 97.876661 169.341684c0.895988 1.663977 0.72599 3.541952-0.297996 4.351941l-103.550584 80.936893a21.337708 21.337708 0 0 0-8.02189 19.455734c1.621978 12.969823 3.285955 28.54361 3.285955 45.439379 0 16.937768-1.663977 32.469556-3.285955 45.439379a21.377708 21.377708 0 0 0 8.02189 19.455734l103.422586 80.894894c1.105985 0.895988 1.319982 2.815962 0.635991 4.009945z" p-id="19375" fill="#000000"></path><path d="M512.037999 298.661917c-117.630392 0-213.331083 95.700692-213.331083 213.331083s95.700692 213.331083 213.331083 213.331083S725.369083 629.623392 725.369083 511.993s-95.700692-213.331083-213.331084-213.331083z m0 383.99475c-94.120713 0-170.663667-76.542954-170.663666-170.663667s76.542954-170.663667 170.663666-170.663667 170.663667 76.542954 170.663667 170.663667-76.542954 170.663667-170.663667 170.663667z" p-id="19376" fill="#000000"></path></svg>