<?xml version="1.0" standalone="no"?><!DOCTYPE svg PUBLIC "-//W3C//DTD SVG 1.1//EN" "http://www.w3.org/Graphics/SVG/1.1/DTD/svg11.dtd"><svg t="1629419488608" class="icon" viewBox="0 0 1024 1024" version="1.1" xmlns="http://www.w3.org/2000/svg" p-id="5513" width="512" height="512" xmlns:xlink="http://www.w3.org/1999/xlink"><defs><style type="text/css"></style></defs><path d="M285.538462 118.153846h-216.615385C53.169231 118.153846 39.384615 131.938462 39.384615 147.692308v256c0 15.753846 13.784615 29.538462 29.538462 29.538461h216.615385c15.753846 0 29.538462-13.784615 29.538461-29.538461v-256c0-15.753846-13.784615-29.538462-29.538461-29.538462z m669.538461 0h-531.692308c-15.753846 0-29.538462 13.784615-29.538461 29.538462v59.076923c0 15.753846 13.784615 29.538462 29.538461 29.538461h531.692308c15.753846 0 29.538462-13.784615 29.538462-29.538461v-59.076923c0-15.753846-13.784615-29.538462-29.538462-29.538462z m-531.692308 315.076923h334.769231c15.753846 0 29.538462-13.784615 29.538462-29.538461v-59.076923c0-15.753846-13.784615-29.538462-29.538462-29.538462h-334.769231c-15.753846 0-29.538462 13.784615-29.538461 29.538462v59.076923c0 15.753846 13.784615 29.538462 29.538461 29.538461z m-137.846153 157.538462h-216.615385c-15.753846 0-29.538462 13.784615-29.538462 29.538461v256c0 15.753846 13.784615 29.538462 29.538462 29.538462h216.615385c15.753846 0 29.538462-13.784615 29.538461-29.538462v-256c0-15.753846-13.784615-29.538462-29.538461-29.538461z m669.538461 0h-531.692308c-15.753846 0-29.538462 13.784615-29.538461 29.538461v59.076923c0 15.753846 13.784615 29.538462 29.538461 29.538462h531.692308c15.753846 0 29.538462-13.784615 29.538462-29.538462v-59.076923c0-15.753846-13.784615-29.538462-29.538462-29.538461z m-196.923077 196.923077h-334.769231c-15.753846 0-29.538462 13.784615-29.538461 29.538461v59.076923c0 15.753846 13.784615 29.538462 29.538461 29.538462h334.769231c15.753846 0 29.538462-13.784615 29.538462-29.538462v-59.076923c0-15.753846-13.784615-29.538462-29.538462-29.538461z" p-id="5514" fill="#000000"></path></svg>