<svg t="1600732290374" class="icon" viewBox="0 0 1024 1024" version="1.1" xmlns="http://www.w3.org/2000/svg" p-id="11728" width="512" height="512">
<path d="M725.333333 725.333333V128a85.333333 85.333333 0 0 0-85.333333-85.333333H394.24a128 128 0 0 0-90.453333 37.546666L122.88 261.12A128 128 0 0 0 85.333333 351.573333V725.333333a85.333333 85.333333 0 0 0 85.333334 85.333334h469.333333a85.333333 85.333333 0 0 0 85.333333-85.333334zM170.666667 384h213.333333a42.666667 42.666667 0 0 0 42.666667-42.666667V128h213.333333v597.333333H170.666667z m640-170.666667v597.333334a85.333333 85.333333 0 0 1-85.333334 85.333333H256a85.333333 85.333333 0 0 0 85.333333 85.333333h384a170.666667 170.666667 0 0 0 170.666667-170.666666V298.666667a85.333333 85.333333 0 0 0-85.333333-85.333334z" p-id="11729" fill="#000000">
</path>
</svg>
