<?xml version="1.0" standalone="no"?><!DOCTYPE svg PUBLIC "-//W3C//DTD SVG 1.1//EN" "http://www.w3.org/Graphics/SVG/1.1/DTD/svg11.dtd"><svg t="1634127135446" class="icon" viewBox="0 0 1024 1024" version="1.1" xmlns="http://www.w3.org/2000/svg" p-id="6562" width="512" height="512" xmlns:xlink="http://www.w3.org/1999/xlink"><defs><style type="text/css"></style></defs><path d="M928 128 928 402.754 454.306 934.96 480 960 960 416 960 128Z" p-id="6563" fill="#000000"></path><path d="M576 64 64 640l320 320 46.942-47.808 22.696-22.75L896 384 896 160 896 128 896 64 576 64zM704 320c-35.29 0-64-28.71-64-64s28.71-64 64-64 64 28.71 64 64S739.29 320 704 320z" p-id="6564" fill="#000000"></path><path d="M704 256m-32 0a16 16 0 1 0 64 0 16 16 0 1 0-64 0Z" p-id="6565" fill="#000000"></path></svg>