<?xml version="1.0" standalone="no"?><!DOCTYPE svg PUBLIC "-//W3C//DTD SVG 1.1//EN" "http://www.w3.org/Graphics/SVG/1.1/DTD/svg11.dtd"><svg t="1639102667660" class="icon" viewBox="0 0 1024 1024" version="1.1" xmlns="http://www.w3.org/2000/svg" p-id="17408" width="512" height="512" xmlns:xlink="http://www.w3.org/1999/xlink"><defs><style type="text/css"></style></defs><path d="M967.857329 886.684588 67.056232 886.684588c-27.567869 0-49.995671-22.427802-49.995671-49.995671L17.060561 698.103582c0-27.567869 22.427802-49.995671 49.995671-49.995671L967.857329 648.107911c27.567869 0 49.995671 22.427802 49.995671 49.995671L1017.853 836.688917C1017.854023 864.256786 995.426221 886.684588 967.857329 886.684588zM67.056232 678.807097c-10.460236 0-19.296485 8.837272-19.296485 19.296485L47.759747 836.688917c0 10.460236 8.836249 19.296485 19.296485 19.296485L967.857329 855.985402c10.460236 0 19.296485-8.837272 19.296485-19.296485L987.153814 698.103582c0-10.460236-8.837272-19.296485-19.296485-19.296485L67.056232 678.807097zM948.561867 817.392432 571.399855 817.392432l0-99.991342 377.162012 0L948.561867 817.392432zM602.099041 786.693246l315.76364 0 0-38.59297L602.099041 748.100276 602.099041 786.693246zM967.857329 609.514941 67.056232 609.514941c-27.567869 0-49.995671-22.427802-49.995671-49.995671L17.060561 420.933935c0-27.567869 22.427802-49.995671 49.995671-49.995671L967.857329 370.938264c27.567869 0 49.995671 22.427802 49.995671 49.995671l0 138.584312C1017.854023 587.087139 995.426221 609.514941 967.857329 609.514941zM67.056232 401.63745c-10.460236 0-19.296485 8.837272-19.296485 19.296485l0 138.584312c0 10.460236 8.836249 19.296485 19.296485 19.296485L967.857329 578.814732c10.460236 0 19.296485-8.837272 19.296485-19.296485L987.153814 420.933935c0-10.460236-8.837272-19.296485-19.296485-19.296485L67.056232 401.63745zM948.561867 540.221762 363.522364 540.221762l0-99.991342 585.039503 0L948.561867 540.221762zM394.22155 509.523599l523.641131 0 0-38.59297L394.22155 470.930629 394.22155 509.523599zM967.857329 332.345294 67.056232 332.345294c-27.567869 0-49.995671-22.427802-49.995671-49.995671L17.060561 143.764288c0-27.567869 22.427802-49.995671 49.995671-49.995671L967.857329 93.768617c27.567869 0 49.995671 22.427802 49.995671 49.995671l0 138.585335C1017.854023 309.917492 995.426221 332.345294 967.857329 332.345294zM67.056232 124.467803c-10.460236 0-19.296485 8.836249-19.296485 19.296485l0 138.585335c0 10.460236 8.836249 19.296485 19.296485 19.296485L967.857329 301.646108c10.460236 0 19.296485-8.837272 19.296485-19.296485L987.153814 143.764288c0-10.460236-8.837272-19.296485-19.296485-19.296485L67.056232 124.467803zM948.561867 263.053138 709.984167 263.053138l0-99.991342 238.5777 0L948.561867 263.053138zM740.683353 232.353952l177.179328 0 0-38.59297L740.683353 193.760982 740.683353 232.353952z" p-id="17409" fill="#000000"></path></svg>