<?xml version="1.0" standalone="no"?><!DOCTYPE svg PUBLIC "-//W3C//DTD SVG 1.1//EN" "http://www.w3.org/Graphics/SVG/1.1/DTD/svg11.dtd"><svg t="1610071686158" class="icon" viewBox="0 0 1024 1024" version="1.1" xmlns="http://www.w3.org/2000/svg" p-id="3107" width="512" height="512" xmlns:xlink="http://www.w3.org/1999/xlink"><defs><style type="text/css"></style></defs><path d="M650.368 192.64l-287.488 287.445333-30.165333 90.496-44.373334 44.416 120.661334 120.704 44.373333-44.416 90.538667-30.165333 287.445333-287.488-180.992-180.992z m271.530667 150.826667a42.666667 42.666667 0 0 1 0 60.330666l-331.904 331.904-90.453334 30.165334-60.373333 60.330666a42.666667 42.666667 0 0 1-60.330667 0l-181.034666-181.034666a42.666667 42.666667 0 0 1 0-60.330667l60.330666-60.330667 30.165334-90.496 331.904-331.904a42.666667 42.666667 0 0 1 60.330666 0l241.365334 241.365334z m-271.530667-30.165334l60.330667 60.330667-211.2 211.2-60.330667-60.330667 211.2-211.2zM182.741333 720.64l120.661334 120.704-60.330667 60.330667-181.034667-60.330667 120.661334-120.704z" p-id="3108" fill="#000000"></path></svg>