<svg t="1599999945883" class="icon" viewBox="0 0 1024 1024" version="1.1" xmlns="http://www.w3.org/2000/svg" p-id="8601" width="512" height="512"><path d="M224 768 32 768c-17.696 0-32 14.304-32 32l0 192c0 17.696 14.304 32 32 32l192 0c17.696 0 32-14.304 32-32l0-192C256 782.304 241.696 768 224 768zM192 928c0 17.696-14.304 32-32 32L96 960c-17.696 0-32-14.304-32-32l0-64c0-17.696 14.304-32 32-32l64 0c17.696 0 32 14.304 32 32L192 928zM992 832 416 832c-17.696 0-32 14.304-32 32l0 64c0 17.696 14.304 32 32 32l576 0c17.696 0 32-14.304 32-32l0-64C1024 846.304 1009.696 832 992 832zM992 448 416 448c-17.696 0-32 14.304-32 32l0 64c0 17.696 14.304 32 32 32l576 0c17.696 0 32-14.304 32-32l0-64C1024 462.304 1009.696 448 992 448zM224 0 32 0C14.304 0 0 14.304 0 32l0 192c0 17.696 14.304 32 32 32l192 0c17.696 0 32-46.304 32-64L256 32C256 14.304 241.696 0 224 0zM192 160c0 17.696-14.304 32-32 32L96 192C78.304 192 64 177.696 64 160L64 96c0-17.696 14.304-32 32-32l64 0c17.696 0 32 14.304 32 32L192 160zM224 384 32 384c-17.696 0-32 14.304-32 32l0 192c0 17.696 14.304 32 32 32l192 0c17.696 0 32-14.304 32-32l0-192C256 398.304 241.696 384 224 384zM192 544c0 17.696-14.304 32-32 32L96 576c-17.696 0-32-14.304-32-32l0-64c0-17.696 14.304-32 32-32l64 0c17.696 0 32 14.304 32 32L192 544zM992 64 416 64c-17.696 0-32 14.304-32 32l0 64c0 17.696 14.304 32 32 32l576 0c17.696 0 32-14.304 32-32L1024 96C1024 78.304 1009.696 64 992 64z" p-id="8602" fill="#000000"></path></svg>
