<svg t="1600000276194" class="icon" viewBox="0 0 1024 1024" version="1.1" xmlns="http://www.w3.org/2000/svg" p-id="9867" width="512" height="512"><path d="M707.872 484.64C745.376 440.096 768 382.656 768 320c0-141.152-114.848-256-256-256l-128 0-128 0L192 64l0 896 64 0 128 0 192 0c141.152 0 256-114.848 256-256C832 611.04 782.208 529.504 707.872 484.64zM384 192l101.504 0c55.968 0 101.504 57.408 101.504 128s-45.536 128-101.504 128L384 448 384 192zM543.008 832 384 832 384 576l159.008 0c58.464 0 106.016 57.408 106.016 128S601.44 832 543.008 832z" p-id="9868" fill="#000000"></path></svg>
