<svg t="1600002712055" class="icon" viewBox="0 0 1025 1024" version="1.1" xmlns="http://www.w3.org/2000/svg" p-id="10482" width="512" height="512"><path d="M224.992 448C348.704 448 448.992 548.288 448.992 672 448.992 795.712 348.704 896 224.992 896 101.28 896 0.992 795.712 0.992 672L0 640C0 392.576 200.576 192 448 192L448 320C362.528 320 282.176 353.28 221.728 413.728 210.08 425.376 199.488 437.728 189.888 450.752 201.344 448.96 213.056 448 224.992 448ZM800.992 448C924.704 448 1024.992 548.288 1024.992 672 1024.992 795.712 924.704 896 800.992 896 677.28 896 576.992 795.712 576.992 672L576 640C576 392.576 776.576 192 1024 192L1024 320C938.528 320 858.176 353.28 797.728 413.728 786.08 425.376 775.456 437.728 765.888 450.752 777.344 448.96 789.056 448 800.992 448Z" p-id="10483" fill="#000000"></path></svg>
