<svg t="1600000069855" class="icon" viewBox="0 0 1024 1024" version="1.1" xmlns="http://www.w3.org/2000/svg" p-id="9252" width="512" height="512"><path d="M384 832 1024 832 1024 960 384 960zM384 448 1024 448 1024 576 384 576zM384 64 1024 64 1024 192 384 192zM192 0 192 256 128 256 128 64 64 64 64 0ZM128 526.016 128 576 256 576 256 640 64 640 64 494.016 192 434.016 192 384 64 384 64 320 256 320 256 466.016ZM256 704 256 1024 64 1024 64 960 192 960 192 896 64 896 64 832 192 832 192 768 64 768 64 704Z" p-id="9253" fill="#000000"></path></svg>
