<?xml version="1.0" encoding="UTF-8"?><svg width="48" height="48" viewBox="0 0 48 48" fill="none" xmlns="http://www.w3.org/2000/svg"><path d="M9 4V13" stroke="#000000" stroke-width="4" stroke-linecap="round" stroke-linejoin="round"/><path d="M12 13H6" stroke="#000000" stroke-width="4" stroke-linecap="round" stroke-linejoin="round"/><path d="M12 27H6" stroke="#000000" stroke-width="4" stroke-linecap="round" stroke-linejoin="round"/><path d="M6 19.9998C6 19.9998 9 16.9998 11 19.9998C13 22.9999 6 26.9998 6 26.9998" stroke="#000000" stroke-width="4" stroke-linecap="round" stroke-linejoin="round"/><path d="M6.00016 34.5001C6.00016 34.5001 8.00016 31.5 11.0002 33.5C14.0002 35.5 11.0002 38 11.0002 38C11.0002 38 14.0002 40.5 11.0002 42.5C8.00015 44.5 6.00015 41.5 6.00015 41.5" stroke="#000000" stroke-width="4" stroke-linecap="round" stroke-linejoin="round"/><path d="M11 38H9" stroke="#000000" stroke-width="4" stroke-linecap="round" stroke-linejoin="round"/><path d="M9 4L6 6" stroke="#000000" stroke-width="4" stroke-linecap="round" stroke-linejoin="round"/><path d="M21 24H43" stroke="#000000" stroke-width="4" stroke-linecap="round" stroke-linejoin="round"/><path d="M21 38H43" stroke="#000000" stroke-width="4" stroke-linecap="round" stroke-linejoin="round"/><path d="M21 10H43" stroke="#000000" stroke-width="4" stroke-linecap="round" stroke-linejoin="round"/></svg>
