<svg t="1600002467528" class="icon" viewBox="0 0 1024 1024" version="1.1" xmlns="http://www.w3.org/2000/svg" p-id="4337" width="512" height="512"><path d="M594.707692 63.015385c-15.753846-11.815385-37.415385-17.723077-63.015384-17.723077-5.907692 0-11.815385 0-17.723077 1.96923-68.923077 9.846154-114.215385 74.830769-141.784616 133.907693-11.815385 27.569231-23.630769 57.107692-33.476923 86.646154-5.907692 13.784615-9.846154 27.569231-15.753846 41.353846 0 1.969231-7.876923 29.538462-9.846154 29.538461h-70.892307c-9.846154 0-17.723077 7.876923-17.723077 17.723077s7.876923 17.723077 17.723077 17.723077h61.046153l-35.446153 147.692308C236.307692 683.323077 191.015385 870.4 179.2 903.876923c-11.815385 33.476923-27.569231 51.2-49.230769 51.2-3.938462 0-7.876923 0-9.846154-1.969231-1.969231-1.969231-3.938462-3.938462-3.938462-7.876923 0-1.969231 1.969231-7.876923 5.907693-13.784615 3.938462-5.907692 5.907692-13.784615 5.907692-19.692308 0-13.784615-3.938462-23.630769-13.784615-31.507692-7.876923-7.876923-17.723077-11.815385-29.538462-11.815385s-21.661538 3.938462-31.507692 11.815385c-9.846154 7.876923-13.784615 19.692308-13.784616 33.476923 0 19.692308 7.876923 35.446154 23.63077 49.230769 15.753846 13.784615 35.446154 19.692308 61.046153 19.692308 41.353846 0 80.738462-19.692308 108.307693-51.2 17.723077-19.692308 29.538462-43.323077 41.353846-68.923077 35.446154-76.8 53.169231-161.476923 72.861538-242.215385 19.692308-82.707692 39.384615-165.415385 57.107693-250.092307H472.615385c9.846154 0 17.723077-7.876923 17.723077-17.723077s-7.876923-17.723077-17.723077-17.723077h-61.046154c33.476923-129.969231 72.861538-218.584615 80.738461-232.369231 13.784615-21.661538 27.569231-33.476923 41.353846-33.476923 5.907692 0 9.846154 1.969231 11.815385 3.938461 1.969231 3.938462 1.969231 5.907692 1.969231 7.876924 0 1.969231-1.969231 5.907692-5.907692 13.784615-3.938462 7.876923-5.907692 15.753846-5.907693 23.630769 0 11.815385 3.938462 19.692308 11.815385 27.569231 7.876923 7.876923 17.723077 11.815385 29.538461 11.815385s21.661538-3.938462 29.538462-11.815385c7.876923-7.876923 11.815385-19.692308 11.815385-33.476923 1.969231-21.661538-5.907692-37.415385-23.63077-49.230769z m313.107693 393.846153c25.6 0 74.830769-19.692308 74.830769-86.646153 0-64.984615-47.261538-68.923077-61.046154-68.923077-29.538462 0-57.107692 21.661538-82.707692 64.984615-25.6 45.292308-53.169231 92.553846-53.169231 92.553846-5.907692-31.507692-11.815385-57.107692-13.784615-68.923077-5.907692-27.569231-37.415385-86.646154-102.4-86.646154-64.984615 0-124.061538 37.415385-124.061539 37.415385-11.815385 7.876923-17.723077 19.692308-17.723077 33.476923 0 21.661538 17.723077 39.384615 39.384616 39.384616 5.907692 0 11.815385-1.969231 17.723076-3.938462 0 0 49.230769-27.569231 59.076924 0 3.938462 7.876923 5.907692 17.723077 7.876923 27.569231 11.815385 43.323077 23.630769 92.553846 33.476923 137.846154l-43.323077 61.046153s-47.261538-17.723077-72.861539-17.723076-74.830769 19.692308-74.830769 86.646153 47.261538 68.923077 61.046154 68.923077c29.538462 0 57.107692-21.661538 82.707692-64.984615 25.6-45.292308 53.169231-92.553846 53.169231-92.553846 7.876923 39.384615 15.753846 72.861538 19.692308 86.646154 15.753846 45.292308 53.169231 72.861538 104.36923 72.861538 0 0 51.2 0 112.246154-33.476923 13.784615-5.907692 25.6-19.692308 25.6-37.415385 0-21.661538-17.723077-39.384615-39.384615-39.384615-5.907692 0-11.815385 1.969231-17.723077 3.938462 0 0-43.323077 23.630769-57.107692 5.907692-9.846154-19.692308-19.692308-47.261538-25.6-78.769231-5.907692-29.538462-13.784615-63.015385-19.692308-96.492308l43.323077-63.015384c-1.969231 1.969231 47.261538 19.692308 70.892308 19.692307z" p-id="4338" fill="#000000"></path></svg>
