<svg t="1600000317382" class="icon" viewBox="0 0 1024 1024" version="1.1" xmlns="http://www.w3.org/2000/svg" p-id="10277" width="512" height="512"><path d="M1024 512 1024 576 789.504 576C816.992 614.496 832 658.688 832 704 832 774.88 795.328 843.04 731.424 890.976 672.064 935.488 594.144 960 512 960 429.856 960 351.936 935.488 292.576 890.976 228.672 843.04 192 774.88 192 704L320 704C320 773.376 407.936 832 512 832 616.064 832 704 773.376 704 704 704 634.624 616.064 576 512 576L0 576 0 512 299.52 512C297.184 510.336 294.848 508.672 292.576 506.976 228.672 459.04 192 390.88 192 320 192 249.12 228.672 180.96 292.576 133.024 351.936 88.512 429.856 64 512 64 594.144 64 672.064 88.512 731.424 133.024 795.328 180.96 832 249.12 832 320L704 320C704 250.624 616.064 192 512 192 407.936 192 320 250.624 320 320 320 389.376 407.936 448 512 448 590.976 448 666.048 470.688 724.48 512L1024 512Z" p-id="10278" fill="#000000"></path></svg>
