<svg t="1600002526343" class="icon" viewBox="0 0 1152 1024" version="1.1" xmlns="http://www.w3.org/2000/svg" p-id="4798" width="512" height="512"><path d="M416.01034 64h-96a192 192 0 0 0-192 192v74.96a64.12 64.12 0 0 1-18.76 45.3L18.75034 466.74a64 64 0 0 0 0 90.52l90.5 90.5A64 64 0 0 1 128.01034 693.02V768a192 192 0 0 0 192 192h96a32 32 0 0 0 32-32v-64a32 32 0 0 0-32-32h-96a64 64 0 0 1-64-64v-74.96a192 192 0 0 0-56.26-135.78L154.51034 512l45.26-45.26A192 192 0 0 0 256.01034 330.96V256a64 64 0 0 1 64-64h96a32 32 0 0 0 32-32V96a32 32 0 0 0-32-32z m717.26 402.74l-90.5-90.48a64.12 64.12 0 0 1-18.76-45.3V256a192 192 0 0 0-192-192h-96a32 32 0 0 0-32 32v64a32 32 0 0 0 32 32h96a64 64 0 0 1 64 64v74.94a192 192 0 0 0 56.26 135.82L997.51034 512l-45.24 45.26A192 192 0 0 0 896.01034 693.04V768a64 64 0 0 1-64 64h-96a32 32 0 0 0-32 32v64a32 32 0 0 0 32 32h96a192 192 0 0 0 192-192v-74.98a64 64 0 0 1 18.76-45.26l90.5-90.5a64 64 0 0 0 0-90.52z" p-id="4799" fill="#000000"></path></svg>
