<?xml version="1.0" encoding="UTF-8"?><svg width="48" height="48" viewBox="0 0 48 48" fill="none" xmlns="http://www.w3.org/2000/svg"><path d="M16 4C14 4 11 5 11 9C11 13 11 15 11 18C11 21 6 23 6 23C6 23 11 25 11 28C11 31 11 35 11 39C11 43 14 44 16 44" stroke="#000000" stroke-width="4" stroke-linecap="round" stroke-linejoin="round"/><path d="M32 4C34 4 37 5 37 9C37 13 37 15 37 18C37 21 42 23 42 23C42 23 37 25 37 28C37 31 37 35 37 39C37 43 34 44 32 44" stroke="#000000" stroke-width="4" stroke-linecap="round" stroke-linejoin="round"/></svg>
