<?xml version="1.0" standalone="no"?><!DOCTYPE svg PUBLIC "-//W3C//DTD SVG 1.1//EN" "http://www.w3.org/Graphics/SVG/1.1/DTD/svg11.dtd"><svg t="1646971542356" class="icon" viewBox="0 0 1024 1024" version="1.1" xmlns="http://www.w3.org/2000/svg" p-id="10326" width="512" height="512" xmlns:xlink="http://www.w3.org/1999/xlink"><defs><style type="text/css"></style></defs><path d="M960 447.968c0-211.744-200.96-384-448-384s-448 172.256-448 384c0 116.48 63.008 226.048 172.896 300.672 14.656 9.984 34.528 6.144 44.448-8.512 9.952-14.624 6.112-34.528-8.512-44.448C180.8 633.184 128 542.912 128 447.968c0-176.448 172.256-320 384-320s384 143.552 384 320-172.256 320-384 320c-1.984 0-3.68 0.768-5.536 1.12-15.168-2.688-30.528 5.184-35.808 20.224-6.112 17.344-46.368 46.624-94.112 73.76 17.472-58.208 9.088-70.688 3.52-78.976a36.034 36.034 0 0 0-29.92-15.936c-17.664 0-32 14.304-32 32 0 5.824 1.536 11.264 4.256 15.936-3.232 18.24-17.216 60.864-33.088 99.872-4.928 12.096-1.984 25.984 7.36 35.072a32.049 32.049 0 0 0 22.272 8.992c4.384 0 8.8-0.896 12.992-2.752 36.48-16.256 147.616-69.152 187.584-125.632C763.072 828.16 960 657.536 960 447.968z" p-id="10327" fill="#000000"></path><path d="M726.624 273.696c-12.512-12.512-32.736-12.512-45.248 0L545.024 410.048c-19.936-12.288-42.784-19.2-66.848-19.2-34.208 0-66.336 13.312-90.496 37.472-49.888 49.888-49.888 131.104 0 181.056 24.16 24.16 56.32 37.472 90.496 37.472 34.208 0 66.336-13.312 90.496-37.472 24.192-24.192 37.536-56.352 37.504-90.592-0.032-22.336-6.24-43.552-16.928-62.496L641.536 404l39.84 39.84c6.24 6.24 14.432 9.376 22.624 9.376s16.384-3.136 22.624-9.376c12.512-12.512 12.512-32.736 0-45.248l-39.84-39.84 39.84-39.84c12.512-12.48 12.512-32.736 0-45.216z m-203.2 290.432c-24.16 24.096-66.368 24.128-90.496 0.032-24.96-25.024-24.96-65.632 0-90.592 12.064-12.064 28.128-18.72 45.248-18.72 17.12 0 33.184 6.656 45.248 18.72 12.096 12.096 18.752 28.16 18.752 45.28s-6.624 33.184-18.752 45.28z" p-id="10328" fill="#000000"></path></svg>