<?xml version="1.0" standalone="no"?><!DOCTYPE svg PUBLIC "-//W3C//DTD SVG 1.1//EN" "http://www.w3.org/Graphics/SVG/1.1/DTD/svg11.dtd"><svg t="1636336824519" class="icon" viewBox="0 0 1024 1024" version="1.1" xmlns="http://www.w3.org/2000/svg" p-id="2399" width="512" height="512" xmlns:xlink="http://www.w3.org/1999/xlink"><defs><style type="text/css"></style></defs><path d="M896 809.984l0-553.984-384 0 0 553.984 384 0zM896 169.984q34.005333 0 59.989333 25.984t25.984 59.989333l0 553.984q0 34.005333-25.984 59.989333t-59.989333 25.984l-768 0q-34.005333 0-59.989333-25.984t-25.984-59.989333l0-553.984q0-34.005333 25.984-59.989333t59.989333-25.984l768 0zM553.984 617.984l299.989333 0 0 64-299.989333 0 0-64zM553.984 406.016l299.989333 0 0 64-299.989333 0 0-64zM553.984 512l299.989333 0 0 64-299.989333 0 0-64z" p-id="2400" fill="#000000"></path></svg>