<?xml version="1.0" encoding="UTF-8" standalone="no"?>
<!-- Created with Inkscape (http://www.inkscape.org/) -->

<svg
   xmlns:dc="http://purl.org/dc/elements/1.1/"
   xmlns:cc="http://creativecommons.org/ns#"
   xmlns:rdf="http://www.w3.org/1999/02/22-rdf-syntax-ns#"
   xmlns:svg="http://www.w3.org/2000/svg"
   xmlns="http://www.w3.org/2000/svg"
   xmlns:sodipodi="http://sodipodi.sourceforge.net/DTD/sodipodi-0.dtd"
   xmlns:inkscape="http://www.inkscape.org/namespaces/inkscape"
   width="2300"
   height="1600"
   viewBox="0 0 608.54165 423.33335"
   version="1.1"
   id="svg2731"
   inkscape:version="0.92.2 5c3e80d, 2017-08-06"
   sodipodi:docname="for_programmers.svg">
  <defs
     id="defs2725" />
  <sodipodi:namedview
     id="base"
     pagecolor="#ffffff"
     bordercolor="#666666"
     borderopacity="1.0"
     inkscape:pageopacity="0.0"
     inkscape:pageshadow="2"
     inkscape:zoom="0.51176853"
     inkscape:cx="857.7003"
     inkscape:cy="873.74957"
     inkscape:document-units="px"
     inkscape:current-layer="layer1"
     showgrid="true"
     units="px"
     inkscape:pagecheckerboard="true"
     showborder="true"
     showguides="true"
     inkscape:guide-bbox="true">
    <inkscape:grid
       type="xygrid"
       id="grid3630" />
  </sodipodi:namedview>
  <metadata
     id="metadata2728">
    <rdf:RDF>
      <cc:Work
         rdf:about="">
        <dc:format>image/svg+xml</dc:format>
        <dc:type
           rdf:resource="http://purl.org/dc/dcmitype/StillImage" />
        <dc:title></dc:title>
      </cc:Work>
    </rdf:RDF>
  </metadata>
  <g
     inkscape:label="Layer 1"
     inkscape:groupmode="layer"
     id="layer1"
     transform="translate(0,126.33335)"
     style="display:inline">
    <g
       id="g4604"
       transform="matrix(0.26458333,0,0,0.26458333,241.90061,17.599853)"
       style="fill:#00897b;fill-opacity:1">
      <g
         id="g4596"
         style="fill:#00897b;fill-opacity:1">
        <circle
           id="circle4590"
           r="24"
           cy="256.16599"
           cx="184.166"
           style="fill:#00897b;fill-opacity:1" />
        <circle
           id="circle4592"
           r="24"
           cy="256.16599"
           cx="256.16599"
           style="fill:#00897b;fill-opacity:1" />
        <circle
           id="circle4594"
           r="24"
           cy="256.16599"
           cx="328.16599"
           style="fill:#00897b;fill-opacity:1" />
      </g>
      <g
         id="g4602"
         style="fill:#00897b;fill-opacity:1">
        <path
           id="path4598"
           d="m 168,392 c -6.143,0 -12.285,-2.344 -16.971,-7.029 l -112,-112 c -9.373,-9.373 -9.373,-24.569 0,-33.941 l 112,-112 c 9.373,-9.372 24.568,-9.372 33.941,0 9.371,9.372 9.371,24.568 0,33.941 L 89.941,256 184.97,351.029 c 9.371,9.372 9.371,24.568 0,33.941 -4.687,4.686 -10.827,7.03 -16.97,7.03 z"
           inkscape:connector-curvature="0"
           style="fill:#00897b;fill-opacity:1" />
        <path
           id="path4600"
           d="m 344,392 c 6.143,0 12.285,-2.344 16.971,-7.029 l 112,-112 c 9.373,-9.373 9.373,-24.569 0,-33.941 l -112,-112 c -9.373,-9.372 -24.568,-9.372 -33.941,0 -9.371,9.372 -9.371,24.568 0,33.941 L 422.059,256 327.03,351.029 c -9.371,9.372 -9.371,24.568 0,33.941 4.687,4.686 10.827,7.03 16.97,7.03 z"
           inkscape:connector-curvature="0"
           style="fill:#00897b;fill-opacity:1" />
      </g>
    </g>
    <path
       id="path4621"
       d="m 486.91272,85.716955 c 0.15875,-1.42875 0.23812,-2.64583 0.23812,-3.65125 0,-5.18583 -0.87312,-5.21229 -4.23333,-5.21229 h -19.97604 c 1.93146,-3.175 3.04271,-6.45583 3.04271,-9.78958 0,-10.02771 -15.16063,-14.9225 -15.16063,-23.28334 0,-3.09562 1.34938,-5.63562 2.46063,-9.23396 -7.01146,1.85209 -12.54125,8.86355 -12.54125,16.29834 0,12.77937 14.89604,12.88521 14.89604,22.43667 0,1.19062 -0.37042,2.24895 -0.55563,3.57187 h -14.79021 c 0.21167,-0.79375 0.34396,-1.64042 0.34396,-2.46062 0,-6.0325 -10.34521,-8.96938 -10.34521,-13.97 0,-1.85209 0.26459,-3.38667 0.84667,-5.55625 -3.41312,1.34937 -7.48771,5.29166 -7.48771,9.73666 0,7.06438 8.44021,7.75229 9.73667,12.25021 h -26.67 c -3.36021,0 -4.23334,0.0265 -4.23334,5.21229 0,5.18584 2.0373,16.21896 7.48771,29.368745 5.45042,13.14979 11.7475,18.94417 16.1925,22.80709 l 0.0265,-0.0529 c 1.34938,1.21708 3.12209,1.93146 5.08,1.93146 h 27.09334 c 1.95791,0 3.73062,-0.71438 5.08,-1.93146 l 0.0265,0.0529 c 2.38125,-2.06375 5.29166,-4.70959 8.30791,-8.7048 1.24354,0.52917 2.59292,0.97896 4.07459,1.32292 2.2225,0.52917 4.445,0.79375 6.56166,0.79375 6.35,0 12.065,-2.43417 16.08667,-6.82625 3.54541,-3.86292 5.5827,-9.10167 5.5827,-14.34042 0,-10.292285 -7.40833,-18.891245 -17.17145,-20.769785 z m -4.49792,33.549165 c -2.27542,0 -4.1275,-0.3175 -5.84729,-1.11125 1.05833,-2.11667 2.09021,-4.20688 3.09562,-6.64104 2.6723,-6.45584 4.52438,-12.435415 5.715,-17.409585 5.82084,1.13771 10.23938,6.297095 10.23938,12.461875 0,6.00604 -4.55084,12.7 -13.20271,12.7 z"
       inkscape:connector-curvature="0"
       style="stroke-width:0.26458335;fill:#00897b;fill-opacity:1" />
    <path
       id="path4631"
       d="m 206.74542,26.066655 h -13.75834 c -0.87312,0 -1.5875,0.71437 -1.5875,1.5875 v 1.48166 c -1.05833,1.05834 -2.88395,2.59292 -4.70958,2.59292 -2.77812,0 -3.91583,-4.33917 -6.90562,-4.86833 -2.9898,-0.52917 -7.19667,-0.79375 -10.02771,-0.79375 -2.83104,0 -13.75834,0.18521 -26.9875,5.68854 -13.22917,5.50333 -18.97063,17.17146 -19.12938,21.53708 -0.0794,2.30188 0.71438,5.58271 2.64584,2.93688 1.93145,-2.64584 9.33979,-11.19188 15.26645,-11.82688 5.90021,-0.60854 12.09146,0.21167 16.85396,4.55083 4.57729,4.15396 5.63563,8.14917 5.63563,19.44688 l -1.74625,0.52917 c -1.13771,0.34395 -1.85209,1.50812 -1.85209,2.38125 0,0 -0.0529,1.71979 -0.0529,18.62666 0,25.029585 -2.8575,53.075415 -2.8575,53.075415 0,0.87312 0.71438,1.5875 1.5875,1.5875 h 22.225 c 0.87313,0 1.5875,-0.71438 1.5875,-1.5875 0,0 -2.8575,-28.04583 -2.8575,-53.075415 0,-16.90687 -0.0529,-18.62666 -0.0529,-18.62666 0,-0.87313 -0.60854,-2.06375 -1.85208,-2.38125 l -2.11666,-0.52917 c 0,-10.10708 -0.10583,-14.2875 1.66688,-17.43604 1.85208,-3.28084 5.9002,-6.05896 7.85812,-6.64104 1.56104,-0.47625 4.23333,0.34395 5.82083,1.71979 v 3.83646 c 0,0.87312 0.71438,1.5875 1.5875,1.5875 h 13.75834 c 0.87312,0 1.5875,-0.71438 1.5875,-1.5875 v -22.225 c 0,-0.87313 -0.71438,-1.5875 -1.5875,-1.5875 z"
       inkscape:connector-curvature="0"
       style="stroke-width:0.26458335;fill:#00897b;fill-opacity:1" />
    <path
       id="path4641"
       d="M 561.32457,222.42865 V -86.035855 H 47.217104 V 222.42865 H 234.65212 v 17.1369 h -68.54766 v 17.13694 h 275.26171 v -17.13694 h -68.54766 v -17.1369 z M 64.354008,-68.898951 H 544.18767 V 205.29174 H 64.354008 Z"
       inkscape:connector-curvature="0"
       style="stroke-width:1.07105732;fill:#00897b;fill-opacity:1" />
  </g>
  <style
     id="style3416"
     type="text/css"><![CDATA[
	.st0{fill:#010101;}
]]></style>
</svg>
