<?xml version="1.0" encoding="UTF-8" standalone="no"?>
<!-- Generator: Adobe Illustrator 16.2.1, SVG Export Plug-In . SVG Version: 6.00 Build 0)  -->

<svg
   xmlns:dc="http://purl.org/dc/elements/1.1/"
   xmlns:cc="http://creativecommons.org/ns#"
   xmlns:rdf="http://www.w3.org/1999/02/22-rdf-syntax-ns#"
   xmlns:svg="http://www.w3.org/2000/svg"
   xmlns="http://www.w3.org/2000/svg"
   xmlns:sodipodi="http://sodipodi.sourceforge.net/DTD/sodipodi-0.dtd"
   xmlns:inkscape="http://www.inkscape.org/namespaces/inkscape"
   version="1.1"
   id="Layer_1"
   x="0px"
   y="0px"
   width="512px"
   height="512px"
   viewBox="0 0 512 512"
   enable-background="new 0 0 512 512"
   xml:space="preserve"
   sodipodi:docname="android-attach.svg"
   inkscape:version="0.92.2 5c3e80d, 2017-08-06"><metadata
     id="metadata4940"><rdf:RDF><cc:Work
         rdf:about=""><dc:format>image/svg+xml</dc:format><dc:type
           rdf:resource="http://purl.org/dc/dcmitype/StillImage" /><dc:title></dc:title></cc:Work></rdf:RDF></metadata><defs
     id="defs4938" /><sodipodi:namedview
     pagecolor="#ffffff"
     bordercolor="#666666"
     borderopacity="1"
     objecttolerance="10"
     gridtolerance="10"
     guidetolerance="10"
     inkscape:pageopacity="0"
     inkscape:pageshadow="2"
     inkscape:window-width="640"
     inkscape:window-height="480"
     id="namedview4936"
     showgrid="false"
     inkscape:pagecheckerboard="true"
     inkscape:zoom="2.2617188"
     inkscape:cx="256"
     inkscape:cy="238.31434"
     inkscape:current-layer="Layer_1" /><g
     id="Icon_26_"
     style="fill:#00897b;fill-opacity:1"><g
       id="g5245"
       style="fill:#00897b;fill-opacity:1"><path
         id="path5243"
         d="m 256,170.136 c 25.499,0 49.567,10.025 67.771,28.229 18.204,18.203 28.229,42.272 28.229,67.771 0,17.621 -4.422,34.031 -13.144,48.773 -8.339,14.098 -20.437,26.036 -34.985,34.526 L 288,358.697 V 377.073 448 h -64 v -70.927 -18.376 l -15.871,-9.262 C 178.442,332.111 160,300.192 160,266.136 c 0,-25.499 10.025,-49.567 28.229,-67.771 18.204,-18.204 42.272,-28.229 67.771,-28.229 M 277.333,32 c -6.396,0 -42.666,0 -42.666,0 v 64 h 42.666 z M 406.396,85.864 368,124.271 397.864,154.136 436.27,115.74 Z m -300.792,0 -29.875,29.875 38.406,38.396 L 144,124.271 Z M 256,138.136 c -70.396,0 -128,57.604 -128,128 0,46.938 25.604,88.531 64,110.938 V 480 H 320 V 377.073 c 38.396,-22.406 64,-62.938 64,-110.938 0,-70.396 -57.604,-127.999 -128,-127.999 z m 224,106.666 h -64 v 42.667 h 64 z m -384,0 H 32 v 42.667 h 64 z"
         inkscape:connector-curvature="0"
         style="fill:#00897b;fill-opacity:1" /></g></g></svg>