<?xml version="1.0" encoding="UTF-8" standalone="no"?>
<!-- Generator: Adobe Illustrator 16.2.1, SVG Export Plug-In . SVG Version: 6.00 Build 0)  -->

<svg
   xmlns:dc="http://purl.org/dc/elements/1.1/"
   xmlns:cc="http://creativecommons.org/ns#"
   xmlns:rdf="http://www.w3.org/1999/02/22-rdf-syntax-ns#"
   xmlns:svg="http://www.w3.org/2000/svg"
   xmlns="http://www.w3.org/2000/svg"
   xmlns:sodipodi="http://sodipodi.sourceforge.net/DTD/sodipodi-0.dtd"
   xmlns:inkscape="http://www.inkscape.org/namespaces/inkscape"
   version="1.1"
   id="Layer_1"
   x="0px"
   y="0px"
   width="512px"
   height="512px"
   viewBox="0 0 512 512"
   enable-background="new 0 0 512 512"
   xml:space="preserve"
   sodipodi:docname="android-attach.svg"
   inkscape:version="0.92.2 5c3e80d, 2017-08-06"><metadata
     id="metadata4940"><rdf:RDF><cc:Work
         rdf:about=""><dc:format>image/svg+xml</dc:format><dc:type
           rdf:resource="http://purl.org/dc/dcmitype/StillImage" /><dc:title></dc:title></cc:Work></rdf:RDF></metadata><defs
     id="defs4938" /><sodipodi:namedview
     pagecolor="#ffffff"
     bordercolor="#666666"
     borderopacity="1"
     objecttolerance="10"
     gridtolerance="10"
     guidetolerance="10"
     inkscape:pageopacity="0"
     inkscape:pageshadow="2"
     inkscape:window-width="640"
     inkscape:window-height="480"
     id="namedview4936"
     showgrid="false"
     inkscape:pagecheckerboard="true"
     inkscape:zoom="2.2617188"
     inkscape:cx="256"
     inkscape:cy="238.31434"
     inkscape:current-layer="Layer_1" /><g
     id="g5069"
     transform="translate(0,-5e-4)"
     style="fill:#00897b;fill-opacity:1"><path
       id="path5065"
       d="m 168,392 c -6.143,0 -12.285,-2.344 -16.971,-7.029 l -112,-112 c -9.373,-9.373 -9.373,-24.569 0,-33.941 l 112,-112 c 9.373,-9.372 24.568,-9.372 33.941,0 9.371,9.372 9.371,24.568 0,33.941 L 89.941,256 184.97,351.029 c 9.371,9.373 9.371,24.568 0,33.941 -4.687,4.686 -10.827,7.03 -16.97,7.03 z"
       inkscape:connector-curvature="0"
       style="fill:#00897b;fill-opacity:1" /><path
       id="path5067"
       d="m 344,392 c 6.143,0 12.285,-2.344 16.971,-7.029 l 112,-112 c 9.373,-9.373 9.373,-24.569 0,-33.941 l -112,-112 c -9.373,-9.372 -24.568,-9.372 -33.941,0 -9.371,9.372 -9.371,24.568 0,33.941 L 422.059,256 327.03,351.029 c -9.371,9.373 -9.371,24.568 0,33.941 4.687,4.686 10.827,7.03 16.97,7.03 z"
       inkscape:connector-curvature="0"
       style="fill:#00897b;fill-opacity:1" /></g></svg>