<?xml version="1.0" encoding="UTF-8" standalone="no"?>
<!-- Generator: Adobe Illustrator 16.2.1, SVG Export Plug-In . SVG Version: 6.00 Build 0)  -->

<svg
   xmlns:dc="http://purl.org/dc/elements/1.1/"
   xmlns:cc="http://creativecommons.org/ns#"
   xmlns:rdf="http://www.w3.org/1999/02/22-rdf-syntax-ns#"
   xmlns:svg="http://www.w3.org/2000/svg"
   xmlns="http://www.w3.org/2000/svg"
   xmlns:sodipodi="http://sodipodi.sourceforge.net/DTD/sodipodi-0.dtd"
   xmlns:inkscape="http://www.inkscape.org/namespaces/inkscape"
   version="1.1"
   id="Layer_1"
   x="0px"
   y="0px"
   width="512px"
   height="512px"
   viewBox="0 0 512 512"
   enable-background="new 0 0 512 512"
   xml:space="preserve"
   sodipodi:docname="android-attach.svg"
   inkscape:version="0.92.2 5c3e80d, 2017-08-06"><metadata
     id="metadata4940"><rdf:RDF><cc:Work
         rdf:about=""><dc:format>image/svg+xml</dc:format><dc:type
           rdf:resource="http://purl.org/dc/dcmitype/StillImage" /><dc:title></dc:title></cc:Work></rdf:RDF></metadata><defs
     id="defs4938" /><sodipodi:namedview
     pagecolor="#ffffff"
     bordercolor="#666666"
     borderopacity="1"
     objecttolerance="10"
     gridtolerance="10"
     guidetolerance="10"
     inkscape:pageopacity="0"
     inkscape:pageshadow="2"
     inkscape:window-width="640"
     inkscape:window-height="480"
     id="namedview4936"
     showgrid="false"
     inkscape:pagecheckerboard="true"
     inkscape:zoom="2.2617188"
     inkscape:cx="256"
     inkscape:cy="238.31434"
     inkscape:current-layer="Layer_1" /><g
     id="g5001"
     transform="translate(0.01971293,-0.02898186)"
     style="fill:#00897b;fill-opacity:1"><g
       id="g4997"
       style="fill:#00897b;fill-opacity:1"><path
         id="path4995"
         d="m 457.6,140.2 -82.5,-4 -4.8,-53.8 C 369.3,71.1 359.2,63.2 347.4,64.1 L 51.4,88.4 C 39.6,89.4 31.1,98.9 32,110.1 l 21.2,235.8 c 1,11.3 11.2,19.2 22.9,18.3 l 15,-1.2 -2.4,45.8 c -0.6,12.6 9.2,22.8 22.4,23.5 L 441.3,448 c 13.2,0.6 24.1,-8.6 24.8,-21.2 L 480,163.5 c 0.6,-12.5 -9.3,-22.7 -22.4,-23.3 z m -355,5.3 -7.1,134.8 -17.4,24.7 -16,-178 c 0,-0.2 0,-0.3 0,-0.5 0,-0.2 0,-0.3 0,-0.5 0.5,-5 4.3,-9 9.5,-9.4 l 261,-21.4 c 5.2,-0.4 9.7,3 10.5,7.9 0,0.2 0.3,0.2 0.3,0.4 0,0.1 0.3,0.2 0.3,0.4 l 2.7,30.8 -219,-10.5 c -13.2,-0.4 -24.2,8.8 -24.8,21.3 z M 436.7,382.4 390,327.1 362.5,294.4 c -2.4,-2.9 -6.3,-5.3 -10.6,-5.5 -4.3,-0.2 -7.5,1.5 -11.1,4.1 l -16.4,11.9 c -3.5,2.1 -6.2,3.5 -9.9,3.3 -3.6,-0.2 -6.8,-1.6 -9.1,-3.8 -0.8,-0.8 -2.3,-2.2 -3.5,-3.4 l -42.8,-48.9 c -3.1,-3.9 -8.2,-6.4 -13.8,-6.7 -5.7,-0.3 -11.2,2.1 -14.8,5.6 l -101.1,108.8 -6.8,7.4 0.3,-6.8 6.8,-128.9 3.3,-62.9 c 0,-0.2 0,-0.4 0,-0.5 0,-0.2 0,-0.4 0,-0.5 1.4,-5.4 6.2,-9.3 11.9,-9 l 204.2,9.8 28.7,1.4 58.3,2.8 c 5.8,0.3 10.3,4.7 10.4,10.2 0,0.2 0.3,0.3 0.3,0.5 0,0.2 0.3,0.3 0.3,0.5 z"
         inkscape:connector-curvature="0"
         style="fill:#00897b;fill-opacity:1" /></g><path
       id="path4999"
       d="m 373.2,262.3 c 19.4,0 35.2,-15.8 35.2,-35.2 0,-19.4 -15.7,-35.2 -35.2,-35.2 -19.4,0 -35.2,15.7 -35.2,35.2 0,19.5 15.7,35.2 35.2,35.2 z"
       inkscape:connector-curvature="0"
       style="fill:#00897b;fill-opacity:1" /></g></svg>