<?xml version="1.0" encoding="UTF-8" standalone="no"?>
<!-- Generator: Adobe Illustrator 16.2.1, SVG Export Plug-In . SVG Version: 6.00 Build 0)  -->

<svg
   xmlns:dc="http://purl.org/dc/elements/1.1/"
   xmlns:cc="http://creativecommons.org/ns#"
   xmlns:rdf="http://www.w3.org/1999/02/22-rdf-syntax-ns#"
   xmlns:svg="http://www.w3.org/2000/svg"
   xmlns="http://www.w3.org/2000/svg"
   xmlns:sodipodi="http://sodipodi.sourceforge.net/DTD/sodipodi-0.dtd"
   xmlns:inkscape="http://www.inkscape.org/namespaces/inkscape"
   version="1.1"
   id="Layer_1"
   x="0px"
   y="0px"
   width="512px"
   height="512px"
   viewBox="0 0 512 512"
   enable-background="new 0 0 512 512"
   xml:space="preserve"
   sodipodi:docname="android-attach.svg"
   inkscape:version="0.92.2 5c3e80d, 2017-08-06"><metadata
     id="metadata4940"><rdf:RDF><cc:Work
         rdf:about=""><dc:format>image/svg+xml</dc:format><dc:type
           rdf:resource="http://purl.org/dc/dcmitype/StillImage" /><dc:title></dc:title></cc:Work></rdf:RDF></metadata><defs
     id="defs4938" /><sodipodi:namedview
     pagecolor="#ffffff"
     bordercolor="#666666"
     borderopacity="1"
     objecttolerance="10"
     gridtolerance="10"
     guidetolerance="10"
     inkscape:pageopacity="0"
     inkscape:pageshadow="2"
     inkscape:window-width="640"
     inkscape:window-height="480"
     id="namedview4936"
     showgrid="false"
     inkscape:pagecheckerboard="true"
     inkscape:zoom="2.2617188"
     inkscape:cx="256"
     inkscape:cy="238.31434"
     inkscape:current-layer="Layer_1" /><path
     id="path5305"
     d="m 410.06018,31.999998 h -52 c -3.3,0 -6,2.7 -6,6 v 5.6 c -4,4 -10.9,9.8 -17.8,9.8 -10.5,0 -14.8,-16.4 -26.1,-18.4 -11.3,-2 -27.2,-3 -37.9,-3 -10.7,0 -52,0.7 -102,21.5 -50,20.800003 -71.699998,64.900002 -72.299998,81.400002 -0.3,8.7 2.7,21.1 9.999998,11.1 7.3,-10 35.3,-42.3 57.7,-44.7 22.3,-2.299999 45.7,0.8 63.7,17.2 17.3,15.7 21.3,30.8 21.3,73.5 l -6.6,2 c -4.3,1.3 -7,5.7 -7,9 0,0 -0.2,6.5 -0.2,70.4 0,94.6 -10.8,200.6 -10.8,200.6 0,3.3 2.7,6 6,6 h 84 c 3.3,0 6,-2.7 6,-6 0,0 -10.8,-106 -10.8,-200.6 0,-63.9 -0.2,-70.4 -0.2,-70.4 0,-3.3 -2.3,-7.8 -7,-9 l -8,-2 c 0,-38.2 -0.4,-54 6.3,-65.9 7,-12.4 22.3,-22.9 29.7,-25.1 5.9,-1.799999 16,1.3 22,6.5 V 122 c 0,3.3 2.7,6 6,6 h 52 c 3.3,0 6,-2.7 6,-6 V 37.999998 c 0,-3.3 -2.7,-6 -6,-6 z"
     inkscape:connector-curvature="0"
     style="fill:#00897b;fill-opacity:1" /></svg>