<?xml version="1.0" encoding="UTF-8" standalone="no"?>
<!-- Generator: Adobe Illustrator 16.2.1, SVG Export Plug-In . SVG Version: 6.00 Build 0)  -->

<svg
   xmlns:dc="http://purl.org/dc/elements/1.1/"
   xmlns:cc="http://creativecommons.org/ns#"
   xmlns:rdf="http://www.w3.org/1999/02/22-rdf-syntax-ns#"
   xmlns:svg="http://www.w3.org/2000/svg"
   xmlns="http://www.w3.org/2000/svg"
   xmlns:sodipodi="http://sodipodi.sourceforge.net/DTD/sodipodi-0.dtd"
   xmlns:inkscape="http://www.inkscape.org/namespaces/inkscape"
   version="1.1"
   id="Layer_1"
   x="0px"
   y="0px"
   width="512px"
   height="512px"
   viewBox="0 0 512 512"
   enable-background="new 0 0 512 512"
   xml:space="preserve"
   sodipodi:docname="android-attach.svg"
   inkscape:version="0.92.2 5c3e80d, 2017-08-06"><metadata
     id="metadata4940"><rdf:RDF><cc:Work
         rdf:about=""><dc:format>image/svg+xml</dc:format><dc:type
           rdf:resource="http://purl.org/dc/dcmitype/StillImage" /><dc:title></dc:title></cc:Work></rdf:RDF></metadata><defs
     id="defs4938" /><sodipodi:namedview
     pagecolor="#ffffff"
     bordercolor="#666666"
     borderopacity="1"
     objecttolerance="10"
     gridtolerance="10"
     guidetolerance="10"
     inkscape:pageopacity="0"
     inkscape:pageshadow="2"
     inkscape:window-width="640"
     inkscape:window-height="480"
     id="namedview4936"
     showgrid="false"
     inkscape:pagecheckerboard="true"
     inkscape:zoom="2.2617188"
     inkscape:cx="256"
     inkscape:cy="256"
     inkscape:current-layer="Layer_1" /><g
     id="Icon_3_"
     style="fill:#00897b;fill-opacity:1"><g
       id="g4932"
       style="fill:#00897b;fill-opacity:1"><path
         d="M341.334,128v234.666C341.334,409.604,302.938,448,256,448c-46.937,0-85.333-38.396-85.333-85.334V117.334    C170.667,87.469,194.135,64,224,64c29.864,0,53.333,23.469,53.333,53.334v245.333c0,11.729-9.605,21.333-21.334,21.333    c-11.729,0-21.333-9.604-21.333-21.333V160h-32v202.667C202.667,392.531,226.135,416,256,416    c29.865,0,53.334-23.469,53.334-53.333V117.334C309.334,70.401,270.938,32,224,32c-46.938,0-85.334,38.401-85.334,85.334v245.332    C138.667,427.729,190.938,480,256,480c65.062,0,117.334-52.271,117.334-117.334V128H341.334z"
         id="path4930"
         style="fill:#00897b;fill-opacity:1" /></g></g></svg>