<?xml version="1.0" standalone="no"?><!DOCTYPE svg PUBLIC "-//W3C//DTD SVG 1.1//EN" "http://www.w3.org/Graphics/SVG/1.1/DTD/svg11.dtd"><svg t="1612349138300" class="icon" viewBox="0 0 1024 1024" version="1.1" xmlns="http://www.w3.org/2000/svg" p-id="4255" xmlns:xlink="http://www.w3.org/1999/xlink" width="200" height="200"><defs><style type="text/css"></style></defs><path d="M960 576H692.224c-26.432 74.432-96.704 128-180.224 128-83.456 0-153.792-53.568-180.224-128H64a64 64 0 1 1 0-128h267.776c26.432-74.368 96.768-128 180.224-128 83.52 0 153.792 53.632 180.224 128H960c35.392 0 64 28.608 64 64s-28.608 64-64 64z m-448-128a64 64 0 1 0 0 128c35.392 0 64-28.608 64-64s-28.608-64-64-64z" fill="" p-id="4256"></path></svg>