<?xml version="1.0" standalone="no"?><!DOCTYPE svg PUBLIC "-//W3C//DTD SVG 1.1//EN" "http://www.w3.org/Graphics/SVG/1.1/DTD/svg11.dtd"><svg t="1612348787730" class="icon" viewBox="0 0 1024 1024" version="1.1" xmlns="http://www.w3.org/2000/svg" p-id="2148" xmlns:xlink="http://www.w3.org/1999/xlink" width="200" height="200"><defs><style type="text/css"></style></defs><path d="M1004.628512 466.345889L557.525257 19.285301a66.133223 66.133223 0 0 0-93.354511 0L371.541567 112.085147l117.759804 117.759803a78.421203 78.421203 0 0 1 99.285168 99.8825l113.407811 113.493145a78.421203 78.421203 0 0 1 81.066532 129.663784 78.378536 78.378536 0 0 1-110.933149 0 78.762535 78.762535 0 0 1-17.237304-85.162525L548.693272 382.079363v278.399536c7.509321 3.669327 14.591976 8.661319 20.821299 14.847975a78.847869 78.847869 0 0 1 0 110.933149 78.677202 78.677202 0 0 1-111.317148 0 78.250536 78.250536 0 0 1 0-110.847815c7.76532-7.679987 16.511972-13.482644 25.81329-17.322638V376.959372a78.250536 78.250536 0 0 1-42.495929-102.826496L325.802977 157.866404 19.200821 464.255226c-25.599957 25.81329-25.599957 67.583887 0 93.397178l447.145922 447.017922a65.91989 65.91989 0 0 0 93.269178 0l445.012591-445.012592a65.877224 65.877224 0 0 0 0-93.311845" fill="" p-id="2149"></path></svg>