<?xml version="1.0" standalone="no"?><!DOCTYPE svg PUBLIC "-//W3C//DTD SVG 1.1//EN" "http://www.w3.org/Graphics/SVG/1.1/DTD/svg11.dtd"><svg t="1612348938376" class="icon" viewBox="0 0 1024 1024" version="1.1" xmlns="http://www.w3.org/2000/svg" p-id="2143" xmlns:xlink="http://www.w3.org/1999/xlink" width="200" height="200"><defs><style type="text/css"></style></defs><path d="M554.453333 128c-212.266667 0-383.786667 171.946667-383.786667 384l-128 0 166.186667 166.186667 2.986667 6.186667 172.16-172.373333-128 0c0-164.906667 133.76-298.666667 298.666667-298.666667s298.666667 133.76 298.666667 298.666667-133.76 298.666667-298.666667 298.666667c-82.56 0-157.013333-33.706667-210.986667-87.68l-60.373333 60.373333c69.333333 69.546667 165.12 112.64 271.146667 112.64 212.266667 0 384.213333-171.946667 384.213333-384s-171.946667-384-384.213333-384zM512 341.333333l0 213.333333 182.613333 108.373333 30.72-51.84-149.333333-88.533333 0-181.333333-64 0z" fill="" p-id="2144"></path></svg>