<?xml version="1.0" standalone="no"?><!DOCTYPE svg PUBLIC "-//W3C//DTD SVG 1.1//EN" "http://www.w3.org/Graphics/SVG/1.1/DTD/svg11.dtd"><svg t="1612619426558" class="icon" viewBox="0 0 1024 1024" version="1.1" xmlns="http://www.w3.org/2000/svg" p-id="2127" xmlns:xlink="http://www.w3.org/1999/xlink" width="200" height="200"><defs><style type="text/css"></style></defs><path d="M885.333333 917.333333h-746.666666c-17.066667 0-32-14.933333-32-32S121.6 853.333333 138.666667 853.333333h746.666666c17.066667 0 32 14.933333 32 32s-14.933333 32-32 32zM546.133333 785.066667c-64 0-128-19.2-183.466666-53.333334-14.933333-8.533333-19.2-29.866667-10.666667-44.8 8.533333-14.933333 29.866667-19.2 44.8-10.666666 64 40.533333 140.8 53.333333 215.466667 36.266666 149.333333-36.266667 241.066667-185.6 204.8-334.933333-17.066667-72.533333-61.866667-132.266667-125.866667-170.666667-64-38.4-138.666667-49.066667-209.066667-32-89.6 21.333333-168.533333 96-200.533333 187.733334-6.4 17.066667-23.466667 25.6-40.533333 19.2-17.066667-6.4-25.6-23.466667-19.2-40.533334 38.4-110.933333 134.4-202.666667 247.466666-228.266666 89.6-21.333333 179.2-6.4 258.133334 40.533333 78.933333 46.933333 132.266667 121.6 153.6 211.2 44.8 183.466667-68.266667 366.933333-251.733334 411.733333-27.733333 6.4-55.466667 8.533333-83.2 8.533334z" fill="" p-id="2128"></path><path d="M230.4 437.333333c-29.866667 0-57.6-21.333333-64-51.2l-29.866667-123.733333c-4.266667-17.066667 6.4-34.133333 23.466667-38.4 17.066667-4.266667 34.133333 6.4 38.4 23.466667l29.866667 123.733333c0 2.133333 2.133333 2.133333 4.266666 2.133333l123.733334-29.866666c17.066667-4.266667 34.133333 6.4 38.4 23.466666 4.266667 17.066667-6.4 34.133333-23.466667 38.4l-123.733333 29.866667c-6.4 0-10.666667 2.133333-17.066667 2.133333z" fill="" p-id="2129"></path></svg>