<?xml version="1.0" standalone="no"?><!DOCTYPE svg PUBLIC "-//W3C//DTD SVG 1.1//EN" "http://www.w3.org/Graphics/SVG/1.1/DTD/svg11.dtd"><svg t="1612349304217" class="icon" viewBox="0 0 1024 1024" version="1.1" xmlns="http://www.w3.org/2000/svg" p-id="5782" xmlns:xlink="http://www.w3.org/1999/xlink" width="200" height="200"><defs><style type="text/css"></style></defs><path d="M980.76306 840.106926c0 101.570274-82.384097 183.893074-183.893073 183.893074s-183.893074-82.322799-183.893074-183.893074c0-79.993487 51.367465-147.298352 122.595382-172.614298V349.725396c0-33.897623-27.400068-61.297691-61.297691-61.297691v61.236393a61.338556 61.338556 0 0 1-104.635159 43.398766l-122.595382-122.656681A61.032068 61.032068 0 0 1 429.083839 227.068716c0-15.630911 6.007174-31.32312 17.960224-43.27617l122.595382-122.595383A61.256826 61.256826 0 1 1 674.274604 104.473333V165.832322c101.508977 0 183.893074 82.322799 183.893074 183.893074v317.767232c71.227917 25.315946 122.595383 92.620812 122.595382 172.614298z m-183.893073-61.297691c-33.897623 0-61.297691 27.400068-61.297692 61.297691s27.400068 61.297691 61.297692 61.297691 61.297691-27.400068 61.297691-61.297691-27.400068-61.297691-61.297691-61.297691z m-429.083839 61.297691c0 101.570274-82.322799 183.893074-183.893074 183.893074s-183.893074-82.322799-183.893074-183.893074c0-79.993487 51.306168-147.298352 122.595383-172.614298V399.744312C51.306168 374.428366 0 307.1235 0 227.130013c0-101.570274 82.322799-183.893074 183.893074-183.893073s183.893074 82.322799 183.893074 183.893073c0 79.993487-51.306168 147.298352-122.595383 172.614299v267.687018c71.289215 25.377244 122.595383 92.682109 122.595383 172.675596zM183.893074 165.832322a61.297691 61.297691 0 1 0 0 122.595383 61.297691 61.297691 0 1 0 0-122.595383z m0 612.976913a61.297691 61.297691 0 1 0 0 122.595382 61.297691 61.297691 0 1 0 0-122.595382z" fill="" p-id="5783"></path></svg>