<?xml version="1.0" standalone="no"?><!DOCTYPE svg PUBLIC "-//W3C//DTD SVG 1.1//EN" "http://www.w3.org/Graphics/SVG/1.1/DTD/svg11.dtd"><svg t="1612349231943" class="icon" viewBox="0 0 1024 1024" version="1.1" xmlns="http://www.w3.org/2000/svg" p-id="5014" xmlns:xlink="http://www.w3.org/1999/xlink" width="200" height="200"><defs><style type="text/css"></style></defs><path d="M1008.57728 218.21568l0.13952-1.12-0.17024-0.84736 0.06656-0.53504 0.0704-0.55936 0.03456-0.28032-0.21504-0.28544 0.0384-0.30464 0.0704-0.56064-0.47616-0.6016 0.06912-0.55936 0.06656-0.53504-0.20096-0.59392-0.24704-0.03072 0.13696-1.0944-0.4736-0.6272 0.0704-0.55936 0.03456-0.28032 0.03456-0.28032-0.47616-0.6016-0.512-0.34816 0.03584-0.27904-0.92416-1.22624 0.06912-0.56064-0.47232-0.6272-0.45184-0.59904-0.4736-0.6272 0.06784-0.53504-0.44928-0.62464-0.29568-0.03584-0.27136-0.03456-0.18048-0.56448-0.1984-0.61952-0.27136-0.03328-0.23552-0.31488 0.03072-0.256-0.512-0.06528 0.03456-0.27904-0.54272-0.06784 0.03456-0.28032 0.03456-0.28032-0.512-0.064-0.50048-0.60544-0.512-0.064 0.03456-0.28032-0.54272-0.06784-0.99072-0.69248-0.2048-0.56832-0.27136-0.03328-0.512-0.064-0.27136-0.03456-0.1984-0.61952-0.24704-0.03072-0.29568-0.03584-0.54272-0.06784-0.45184-0.59904-0.54272-0.06784 0.0704-0.56064-0.512-0.064-0.54272-0.06784-0.512-0.064-0.87296-0.10496-0.1792-0.56576-0.27136-0.03328-0.27136-0.03328-0.27136-0.03456-0.24704-0.03072-0.27136-0.03328-0.54272-0.06784-0.24704-0.03072-0.54272-0.06784-1.62816-0.20352-0.512-0.064-0.54272-0.06784-0.512-0.064-0.27136-0.03456-0.78976-0.09856-0.29568-0.03584-0.85632 0.4352-0.27136-0.03328-0.27136-0.03456-0.512-0.064-0.06912 0.55936-0.54272-0.06784-0.512-0.064-0.60928 0.46592-0.56704-0.0704-0.512-0.064L32.83328 437.59104a24.11136 24.11136 0 0 0-17.12768 28.672 23.552 23.552 0 0 0 12.22912 15.24736l257.60128 145.79456 7.6672 164.77312a22.87488 22.87488 0 0 0 23.808 22.2464 21.78688 21.78688 0 0 0 13.81376-6.10816l113.43104-91.1168 194.688 110.5088a22.64576 22.64576 0 0 0 30.92992-8.7552L1005.01248 229.5296l0.61184-0.49152 0.03584-0.28032 0.03072-0.256 0.24704 0.03072 0.0704-0.55936 0.27136 0.03328 0.03456-0.28032 0.06656-0.53376 0.03456-0.28032 0.30592-0.24576 0.30976-0.27136 0.06656-0.53504 0.31744-0.52864 0.06656-0.53376 0.06912-0.56064 0.06656-0.53376 0.0704-0.56064 0.37504-0.80512 0.34176-0.52608 0.44416-3.56352-0.27136-0.03328z m-700.544 367.90912L100.04864 468.94464l730.19648-187.5776L308.03328 586.1248z m28.31872 158.12096l-3.712-90.08384 68.4672 38.79808-64.768 51.28576z m305.8048 31.40608L354.10944 612.6208l569.64864-332.18048-281.6 495.21152z" fill="" p-id="5015"></path></svg>