<?xml version="1.0" standalone="no"?><!DOCTYPE svg PUBLIC "-//W3C//DTD SVG 1.1//EN" "http://www.w3.org/Graphics/SVG/1.1/DTD/svg11.dtd"><svg t="1612619602951" class="icon" viewBox="0 0 1024 1024" version="1.1" xmlns="http://www.w3.org/2000/svg" p-id="3508" xmlns:xlink="http://www.w3.org/1999/xlink" width="200" height="200"><defs><style type="text/css"></style></defs><path d="M849.938174 262.216074c-61.665455 0-111.670336 49.713238-111.670336 111.01235 0 21.939685 6.40385 42.389436 17.449417 59.607586l-76.68452 76.68452c-22.715351-15.924691-50.424436-25.28078-80.340793-25.28078-34.92851 0-66.858734 12.749372-91.339288 33.821293l-34.43016-34.429137c7.966439-14.18814 12.512988-30.531364 12.512988-47.933709 0-54.42147-44.395116-98.547457-99.132788-98.547457s-99.109252 44.12701-99.109252 98.547457c0 12.93152 2.51017 25.278733 7.064906 36.592406l-58.317197 58.30901c-17.715477-11.746532-38.993083-18.600637-61.881372-18.600637-61.688991 0-111.670336 49.714262-111.670336 111.01235 0 61.324694 49.981345 111.01235 111.670336 111.01235 61.665455 0 111.671359-49.688679 111.671359-111.01235 0-18.445094-4.533246-35.837206-12.543687-51.145867l55.787584-55.787584c16.182564 11.426237 35.96512 18.144242 57.32766 18.144242 16.989953 0 32.981159-4.251837 46.960545-11.739369l39.85266 39.847543c-8.980535 18.331507-14.024411 38.920428-14.024411 60.682058 0 76.641541 62.494333 138.771577 139.600455 138.771577S738.267838 699.653891 738.267838 623.01235c0-26.885324-7.696286-51.980885-21.00643-73.240071l79.122035-79.110779c15.901155 8.655124 34.148751 13.579273 53.55473 13.579273 61.690014 0 111.671359-49.688679 111.671359-111.011326C961.609533 311.929312 911.628188 262.216074 849.938174 262.216074z" fill="" p-id="3509"></path></svg>