<?xml version="1.0" encoding="UTF-8"?>
<svg width="512" height="512" version="1.1" viewBox="0 0 135.47 135.47" xmlns="http://www.w3.org/2000/svg" xmlns:cc="http://creativecommons.org/ns#" xmlns:dc="http://purl.org/dc/elements/1.1/" xmlns:rdf="http://www.w3.org/1999/02/22-rdf-syntax-ns#">
<g>
<g transform="matrix(.9082 0 0 .9082 20.729 22.029)"></g>
<g transform="translate(1.5947 2.7809)">
<path transform="matrix(.9082 0 0 .9082 20.729 20.101)" d="m99.826 3.527c-1.158-0.887-7.975-2.01-11.777-1.013-11.022 2.891-30.322 10.657-37.192 18.037-1.248 1.342-1.786 4.783-2.066 7.14-0.138 1.163-0.427 5.422-0.427 5.422s-0.899-3.585-0.777-5.446c0.092-1.411 0.73-4.823 0.73-4.823s-13.54 9.34-15.829 15.74c-0.481 1.346-0.568 4.324-0.514 5.822 0.044 1.222 0.407 4.623 0.481 5.297-9e-3 8e-3 -0.018 0.019-0.027 0.026-0.206-0.466-1.213-2.799-1.509-4.603-0.246-1.505-0.194-5.13-0.194-5.13s-3.525 3.663-4.275 5.244c-0.538 1.133-0.896 3.581-0.648 4.809 0.25 1.234 1.98 4.538 1.98 4.538l0.133 0.073c-11.837 13.213-18.619 22.707-22.276 28.459-2.292 3.607-3.647 6.19-4.381 7.72-0.463 0.969-0.743 1.649-0.896 2.05-0.252 0.664-0.515 1.349-0.256 2.168l0.394 1.248 1.281 0.286c0.645 0.141 1.585 0.086 2.423-0.986 0.096-0.123 0.233-0.306 0.411-0.547 0.328-0.441 0.801-1.091 1.405-1.918 3.425-4.693 11.446-15.688 20.325-26.44 0.926-1.124 4.174-4.877 8.432-9.49 2.14 0.941 4.439 2.573 5.384 2.445 2.625-0.357 7.169-3.295 9.405-4.885 2.095-1.488 7.611-5.524 7.605-7.025-4e-3 -1.054-2.699-1.647-3.645-2.114-1.215-0.6-5.007-2.077-5.007-2.077s3.767 0.69 5.294 1.222c2.41 0.839 5.924 2.522 5.924 2.522s8.781-6.03 11.508-8.242c5.082-4.127 13.09-10.908 12.732-11.6-0.172-0.329-2.443-0.783-4.309-1.971-1.568-0.999-3.096-3.057-3.096-3.057s1.697 1.296 3.754 2.284c2.055 0.987 4.627 1.17 4.627 1.17s9.674-10.939 13.779-17.417c1.452-2.292 1.397-4.706 1.094-4.938zm-29.142 18.175c-7.912 5.677-11.641 9.547-19.387 16.078-10.872 9.164-24.848 25.229-26.702 27.475-11.953 14.477-22.185 29.15-22.323 29.119-0.138-0.03 4.081-12.741 29.645-40.76 9.757-10.692 21.995-21.738 32.544-29.373 17.088-12.367 31.266-17.944 31.266-17.944s-11.77 5.883-25.043 15.405z" fill="#eeeeee"/>
<g transform="matrix(.47704 0 0 .47704 48.114 71.761)">
<g dominant-baseline="text-before-edge" fill="#eeeeee" aria-label="Viki">
<path d="m53.789 6.6866-29.336 56.875h-6.5234l-11.484-56.875h7.6953l8.2812 46.797 23.125-46.797z" dominant-baseline="text-before-edge"/>
<path d="m59.922 10.202q0-1.8359 1.1328-3.0469 1.1719-1.25 3.0078-1.2891 1.8359-0.039063 3.0078 1.1328 1.2109 1.1719 1.1719 2.9688 0 1.7969-1.2109 3.0078-1.1719 1.1719-2.9688 1.2109-1.7969 0.03906-2.9688-1.0547-1.1719-1.1328-1.1719-2.9297zm5.6641 11.094-7.3438 42.266h-7.0703l7.3438-42.266z" dominant-baseline="text-before-edge"/>
<path d="m95.508 63.562-10.781-19.531-5.5469 4.9609-2.5391 14.57h-7.1094l10.43-60h7.1094l-6.25 35.82 4.2578-4.2969 15.039-13.789 9.1797 0.03906-19.414 17.93 13.398 24.297z" dominant-baseline="text-before-edge"/>
<path d="m118.2 10.202q0-1.8359 1.1328-3.0469 1.1719-1.25 3.0078-1.2891 1.8359-0.039063 3.0078 1.1328 1.2109 1.1719 1.1719 2.9688 0 1.7969-1.2109 3.0078-1.1719 1.1719-2.9688 1.2109-1.7969 0.03906-2.9688-1.0547-1.1719-1.1328-1.1719-2.9297zm5.6641 11.094-7.3438 42.266h-7.0703l7.3438-42.266z" dominant-baseline="text-before-edge"/>
</g>
</g>
</g>
</g>
</svg>
