<svg t="1660216912624" class="icon" viewBox="0 0 1024 1024" version="1.1" xmlns="http://www.w3.org/2000/svg" p-id="48067" width="200" height="200"><path d="M512 0c-15.582609 0-33.391304 0-48.973913 2.226087C273.808696 24.486957 117.982609 175.86087 91.269565 365.078261c-20.034783 149.147826 40.069565 291.617391 153.6 382.886956 11.130435 66.782609 69.008696 117.982609 138.017392 117.982609h251.547826c69.008696 0 129.113043-51.2 138.017391-117.982609 100.173913-80.13913 158.052174-198.121739 158.052174-327.234782C934.956522 189.217391 745.73913 0 512 0z m178.086957 703.443478v24.486957c0 28.93913-22.26087 51.2-51.2 51.2H556.521739V520.904348l24.486957 28.93913c8.904348 8.904348 20.034783 15.582609 33.391304 15.582609h2.226087c13.356522 0 26.713043-8.904348 33.391304-20.034783l75.686957-120.208695c13.356522-20.034783 6.678261-48.973913-13.356522-62.330435-20.034783-13.356522-48.973913-6.678261-62.330435 13.356522l-44.521739 69.008695-62.330435-73.460869c-17.808696-20.034783-51.2-20.034783-66.782608 0L414.052174 445.217391l-44.521739-69.008695c-13.356522-20.034783-40.069565-26.713043-62.330435-13.356522-20.034783 13.356522-26.713043 40.069565-13.356522 62.330435l75.686957 120.208695c6.678261 11.130435 20.034783 20.034783 33.391304 20.034783s28.93913-4.452174 37.843478-15.582609l24.486957-28.93913V779.130435h-82.365217c-28.93913 0-51.2-22.26087-51.2-51.2v-24.486957C227.06087 636.66087 160.278261 514.226087 178.086957 378.434783 200.347826 227.06087 322.782609 109.078261 474.156522 91.269565 485.286957 89.043478 498.643478 89.043478 512 89.043478c184.765217 0 333.913043 149.147826 333.913043 331.686957 0 120.208696-62.330435 222.608696-155.826086 282.713043zM623.304348 934.956522H400.695652c-24.486957 0-44.521739 20.034783-44.521739 44.521739s20.034783 44.521739 44.521739 44.521739h222.608696c24.486957 0 44.521739-20.034783 44.521739-44.521739s-20.034783-44.521739-44.521739-44.521739z" fill="#515151" p-id="48068"></path></svg>