<svg t="1660216451804" class="icon" viewBox="0 0 1024 1024" version="1.1" xmlns="http://www.w3.org/2000/svg" p-id="35743" width="200" height="200"><path d="M160.9 346H863c52.8 0 95.7-42.9 95.7-95.7s-42.9-95.7-95.7-95.7H160.9c-52.8 0-95.7 42.9-95.7 95.7s42.9 95.7 95.7 95.7z m473.4-127.7h228.8c17.6 0 31.9 14.3 31.9 31.9 0 17.6-14.3 31.9-31.9 31.9H634.3v-63.8zM863.1 416.8H160.9c-52.8 0-95.7 42.9-95.7 95.7s42.9 95.7 95.7 95.7H863c52.8 0 95.7-42.9 95.7-95.7s-42.8-95.7-95.6-95.7z m0 127.6H506.6v-63.8H863c17.6 0 31.9 14.3 31.9 31.9s-14.2 31.9-31.8 31.9zM863.1 678H160.9c-52.8 0-95.7 42.9-95.7 95.7 0 52.8 42.9 95.7 95.7 95.7H863c52.8 0 95.7-42.9 95.7-95.7 0.1-52.7-42.8-95.7-95.6-95.7z m0 127.7h-165v-63.8H863c17.6 0 31.9 14.3 31.9 31.9 0.1 17.6-14.2 31.9-31.8 31.9z" p-id="35744" fill="#515151"></path></svg>