<svg t="1660283789246" class="icon" viewBox="0 0 1024 1024" version="1.1" xmlns="http://www.w3.org/2000/svg" p-id="11698" width="200" height="200"><path d="M516.736 407.872c18.496 11.584 41.152 27.072 62.208 42.048 41.664 29.568 201.472 18.176 266.688 23.488C910.784 478.656 960 493.056 960 493.056l-90.88-150.784c0 0 98.496-147.776 86.336-144.704-12.032 3.072-73.408 4.544-113.6-6.784s-132.608-12.096-195.52-12.096c-46.656 0-103.424-40.128-129.536-60.8L516.8 67.264 443.2 67.264l0 784.96 73.536 0L516.736 407.872z" p-id="11699" fill="#515151"></path><path d="M619.904 680.64l0 55.296c105.024 14.08 177.536 44.16 177.536 79.04 0 48.384-139.2 87.616-310.784 87.616s-310.72-39.232-310.72-87.616c0-34.176 69.696-63.744 171.2-78.208l0-55.488C182.272 700.608 64 753.28 64 814.976c0 78.336 189.184 141.76 422.656 141.76s422.656-63.424 422.656-141.76C909.248 752.448 787.968 699.328 619.904 680.64z" p-id="11700" fill="#515151"></path></svg>