<svg width="512" height="512" xmlns="http://www.w3.org/2000/svg" xmlns:svg="http://www.w3.org/2000/svg">
 <g>
  <title>Layer 1</title>
  <g id="Icon_3_">
   <g id="svg_1">
    <path d="m341.334,128l0,234.666c0,46.938 -38.396,85.334 -85.334,85.334c-46.937,0 -85.333,-38.396 -85.333,-85.334l0,-245.332c0,-29.865 23.468,-53.334 53.333,-53.334c29.864,0 53.333,23.469 53.333,53.334l0,245.333c0,11.729 -9.605,21.333 -21.334,21.333c-11.729,0 -21.333,-9.604 -21.333,-21.333l0,-202.667l-32,0l0,202.667c0.001,29.864 23.469,53.333 53.334,53.333c29.865,0 53.334,-23.469 53.334,-53.333l0,-245.333c0,-46.933 -38.396,-85.334 -85.334,-85.334c-46.938,0 -85.334,38.401 -85.334,85.334l0,245.332c0.001,65.063 52.272,117.334 117.334,117.334c65.062,0 117.334,-52.271 117.334,-117.334l0,-234.666l-32,0z" id="svg_2"/>
   </g>
  </g>
 </g>
 <g>
  <title>Layer 2</title>
  <circle stroke="#000000" fill="#15ae67" stroke-width="5" stroke-opacity="0" cx="435.5" cy="75.50001" r="70.05334" id="svg_3"/>
 </g>
</svg>
