<?xml version="1.0" encoding="iso-8859-1"?>
<!-- Generator: Adobe Illustrator 19.0.0, SVG Export Plug-In . SVG Version: 6.00 Build 0)  -->
<svg version="1.1" id="Capa_1" xmlns="http://www.w3.org/2000/svg" xmlns:xlink="http://www.w3.org/1999/xlink" x="0px" y="0px"
	 viewBox="0 0 512 512" style="enable-background:new 0 0 512 512;" xml:space="preserve">
<g>
	<path fill="#000000" d="M269.534,399.201c-9.616,0-17.483,7.867-17.483,17.483s7.867,17.483,17.483,17.483h160.263
		c9.616,0,17.483-7.867,17.483-17.483V138.409c0-4.954-2.04-9.616-5.536-12.821L310.62,4.662C307.414,1.748,303.043,0,298.673,0
		h-195.23c-9.616,0-17.483,7.867-17.483,17.483v189.402c0,9.616,7.867,17.483,17.483,17.483s17.483-7.867,17.483-17.483V34.967
		h139.866v151.522c0,9.616,7.867,17.483,17.483,17.483H409.4c0.874,0,2.04,0,2.914-0.291v195.521H269.534z M409.4,169.005H295.759
		V38.463l116.555,107.522v23.311C411.44,169.005,410.274,169.005,409.4,169.005z M16.026,372.977
		c0-9.616,7.867-17.483,17.483-17.483h52.45V300.13c0-9.616,7.867-17.483,17.483-17.483s17.483,7.867,17.483,17.483v55.364h58.278
		c9.616,0,17.483,7.867,17.483,17.483s-7.867,17.483-17.483,17.483h-58.278v55.364c0,9.616-7.867,17.483-17.483,17.483
		s-17.483-7.867-17.483-17.483V390.46H33.51C23.894,390.46,16.026,382.592,16.026,372.977z"/>
</g>
</svg>
