<?xml version="1.0" encoding="iso-8859-1"?>
<!-- Generator: Adobe Illustrator 19.0.0, SVG Export Plug-In . SVG Version: 6.00 Build 0)  -->
<svg version="1.1" id="Capa_1" xmlns="http://www.w3.org/2000/svg" xmlns:xlink="http://www.w3.org/1999/xlink" x="0px" y="0px"
	 viewBox="0 0 512 512" style="enable-background:new 0 0 512 512;" xml:space="preserve">
<g>
	<g>
		<path d="M177.3,76.95v111c0,6.8,5.5,12.3,12.3,12.3h43.2v33.4h-165c-6.8,0-12.3,5.5-12.3,12.3v43.9H12.3
			c-6.8,0-12.3,5.5-12.3,12.3v111c0,6.8,5.5,12.3,12.3,12.3h111c6.8,0,12.3-5.5,12.3-12.3v-111c0-6.8-5.5-12.3-12.3-12.3H80v-31.7
			h152.7v31.7h-43.2c-6.8,0-12.3,5.5-12.3,12.3v111c0,6.8,5.5,12.3,12.3,12.3h111c6.8,0,12.3-5.5,12.3-12.3v-111
			c0-6.8-5.5-12.3-12.3-12.3h-43.2v-31.7H410v31.7h-43.2c-6.8,0-12.3,5.5-12.3,12.3v111c0,6.8,5.5,12.3,12.3,12.3h111
			c6.8,0,12.3-5.5,12.3-12.3v-111c0-6.8-5.5-12.3-12.3-12.3h-43.2v-43.9c0-6.8-5.5-12.3-12.3-12.3h-165v-33.4h43.2
			c6.8,0,12.3-5.5,12.3-12.3v-111c0-6.8-5.5-12.3-12.3-12.3h-111C182.8,64.65,177.3,70.15,177.3,76.95z M111,400.75H24.6v-86.5H111
			V400.75z M288.2,400.75h-86.5v-86.5h86.5V400.75z M465.4,400.75H379v-86.5h86.5v86.5H465.4z M201.8,89.15h86.5v86.5h-86.5
			L201.8,89.15L201.8,89.15z"/>
	</g>
</g>
</svg>
