<svg xmlns="http://www.w3.org/2000/svg" viewBox="0 0 82 82"><title>vnote</title><g id="图层_2" data-name="图层 2"><g id="图层_1-2" data-name="图层 1"><rect width="82" height="82" rx="11.76" ry="11.76" fill="#f2f2f2"/><path d="M50.29,12.74a1.52,1.52,0,0,1,1.52-1.52H62.73a.54.54,0,0,1,.38.92L51.21,24a.54.54,0,0,1-.92-.38Z" fill="#4d4d4d"/><path d="M19.23,28.27a1.52,1.52,0,0,1,1.52-1.52H31.66a.54.54,0,0,1,.38.92l-11.9,11.9a.54.54,0,0,1-.92-.38Z" fill="#4d4d4d"/><path d="M19.23,42.6a1.52,1.52,0,0,1,.45-1.08L32.79,28.41a.54.54,0,0,1,.92.38V40.9A1.52,1.52,0,0,1,33.26,42L20.15,55.1a.54.54,0,0,1-.92-.38Z" fill="#4d4d4d"/><rect x="19.23" y="11.21" width="14.48" height="14.48" rx="1.44" ry="1.44" fill="#c69c6d"/><path d="M34.76,43.8a1.52,1.52,0,0,1,1.52-1.52H62.73a.54.54,0,0,1,.38.92L35.68,70.63a.54.54,0,0,1-.92-.38Z" fill="#4d4d4d"/><path d="M36.8,41.23a.54.54,0,0,1-.38-.92L63.85,12.88a.54.54,0,0,1,.92.38V39.7a1.52,1.52,0,0,1-1.52,1.52Z" fill="#4d4d4d"/><path d="M20.52,58.36a1.52,1.52,0,0,1,0-2.16L32.79,43.94a.54.54,0,0,1,.92.38V70.25a.54.54,0,0,1-.92.38Z" fill="#4d4d4d"/></g></g></svg>
