<svg xmlns="http://www.w3.org/2000/svg" viewBox="0 0 142 142"><title>vnote_cube</title><g id="图层_2" data-name="图层 2"><g id="图层_1-2" data-name="图层 1"><rect width="142" height="142" rx="11.76" ry="11.76" fill="#f2f2f2"/><path d="M12.6,13.8a1.88,1.88,0,0,1,1.88-1.87H64.66A1.87,1.87,0,0,1,66,15.12L15.8,65.31A1.88,1.88,0,0,1,12.6,64Z" fill="#4d4d4d"/><path d="M75.59,14.3a1.27,1.27,0,0,1,.9-2.18h48.42a1.27,1.27,0,0,1,.9,2.18L103.14,37a3.45,3.45,0,0,1-4.87,0Z" fill="#4d4d4d"/><path d="M42.1,46.41a1.27,1.27,0,0,1,2.18-.9L67,68.18a3.45,3.45,0,0,1,0,4.87L44.28,95.73a1.27,1.27,0,0,1-2.18-.9Z" fill="#4d4d4d"/><path d="M12.6,72.56a3.45,3.45,0,0,1,1-2.44L38.13,45.62a1.27,1.27,0,0,1,2.18.9V98.58a3.45,3.45,0,0,1-1,2.44L14.78,125.53a1.27,1.27,0,0,1-2.18-.9Z" fill="#4d4d4d"/><rect x="50.8" y="20.92" width="40" height="40" rx="3.45" ry="3.45" transform="translate(-8.2 62.05) rotate(-45)" fill="#c69c6d"/><path d="M17.09,128.92a1.27,1.27,0,0,1-.9-2.18L68.56,74.38a3.45,3.45,0,0,1,4.87,0l52.37,52.37a1.27,1.27,0,0,1-.9,2.18Z" fill="#4d4d4d"/><path d="M74.85,73a3.45,3.45,0,0,1,0-4.87l52.37-52.37a1.27,1.27,0,0,1,2.18.9V124.43a1.27,1.27,0,0,1-2.18.9Z" fill="#4d4d4d"/></g></g></svg>
