<?xml version="1.0" encoding="UTF-8" standalone="no"?>
<!-- Created with Inkscape (http://www.inkscape.org/) -->

<svg
   xmlns:dc="http://purl.org/dc/elements/1.1/"
   xmlns:cc="http://creativecommons.org/ns#"
   xmlns:rdf="http://www.w3.org/1999/02/22-rdf-syntax-ns#"
   xmlns:svg="http://www.w3.org/2000/svg"
   xmlns="http://www.w3.org/2000/svg"
   xmlns:sodipodi="http://sodipodi.sourceforge.net/DTD/sodipodi-0.dtd"
   xmlns:inkscape="http://www.inkscape.org/namespaces/inkscape"
   width="2300"
   height="1600"
   viewBox="0 0 608.54165 423.33335"
   version="1.1"
   id="svg2731"
   inkscape:version="0.92.2 5c3e80d, 2017-08-06"
   sodipodi:docname="own_your_data.svg">
  <defs
     id="defs2725" />
  <sodipodi:namedview
     id="base"
     pagecolor="#ffffff"
     bordercolor="#666666"
     borderopacity="1.0"
     inkscape:pageopacity="0.0"
     inkscape:pageshadow="2"
     inkscape:zoom="0.25588427"
     inkscape:cx="108.81765"
     inkscape:cy="1395.9963"
     inkscape:document-units="px"
     inkscape:current-layer="layer1"
     showgrid="true"
     units="px"
     inkscape:pagecheckerboard="true"
     showborder="true"
     showguides="true"
     inkscape:guide-bbox="true">
    <inkscape:grid
       type="xygrid"
       id="grid3630" />
  </sodipodi:namedview>
  <metadata
     id="metadata2728">
    <rdf:RDF>
      <cc:Work
         rdf:about="">
        <dc:format>image/svg+xml</dc:format>
        <dc:type
           rdf:resource="http://purl.org/dc/dcmitype/StillImage" />
        <dc:title></dc:title>
      </cc:Work>
    </rdf:RDF>
  </metadata>
  <g
     inkscape:label="Layer 1"
     inkscape:groupmode="layer"
     id="layer1"
     transform="translate(0,126.33335)"
     style="display:inline">
    <path
       style="fill:#00897b;fill-opacity:1;stroke-width:0.15930605"
       inkscape:connector-curvature="0"
       d="m 227.15663,82.930803 c -0.11152,-0.461986 -0.31862,-0.796526 -0.55758,-1.083277 L 213.26514,67.239163 c -0.30268,-0.334545 -0.65315,-0.493849 -1.05142,-0.700948 -0.46199,-0.238956 -0.97177,-0.254888 -1.49747,-0.254888 H 185.2432 c -1.97539,0 -3.77555,1.529338 -3.77555,3.648109 v 53.399384 c 0,2.1347 1.80016,4.12602 3.77555,4.12602 h 38.72731 c 1.97539,0 3.37729,-1.99132 3.37729,-4.12602 V 84.44421 c 0,-0.573502 -0.0637,-0.987694 -0.19117,-1.513407 z m -14.94291,-9.223817 9.23975,10.115933 h -9.23975 z M 186.56545,122.37498 V 71.397048 h 20.55047 v 13.015304 c 0,2.357728 2.13471,4.508362 4.47651,4.508362 H 222.25 v 33.454266 z"
       id="path3677" />
    <path
       id="path3736"
       d="m 290.65663,125.26413 c -0.11152,-0.46198 -0.31862,-0.79652 -0.55758,-1.08327 l -13.33391,-14.60837 c -0.30268,-0.33455 -0.65315,-0.49385 -1.05142,-0.70095 -0.46199,-0.23895 -0.97177,-0.25489 -1.49747,-0.25489 H 248.7432 c -1.97539,0 -3.77555,1.52934 -3.77555,3.64812 v 53.39938 c 0,2.1347 1.80016,4.12602 3.77555,4.12602 h 38.72731 c 1.97539,0 3.37729,-1.99132 3.37729,-4.12602 v -38.88661 c 0,-0.5735 -0.0637,-0.98769 -0.19117,-1.51341 z m -14.94291,-9.22381 9.23975,10.11593 h -9.23975 z m -25.64827,48.668 v -50.97794 h 20.55047 v 13.0153 c 0,2.35773 2.13471,4.50836 4.47651,4.50836 H 285.75 v 33.45428 z"
       inkscape:connector-curvature="0"
       style="fill:#00897b;fill-opacity:1;stroke-width:0.15930605" />
    <path
       id="path3738"
       d="m 315.75785,40.597469 c -0.11152,-0.461986 -0.31862,-0.796526 -0.55758,-1.083277 L 301.86636,24.905829 c -0.30268,-0.334545 -0.65315,-0.493849 -1.05142,-0.700948 -0.46199,-0.238956 -0.97177,-0.254888 -1.49747,-0.254888 h -25.47305 c -1.97539,0 -3.77555,1.529338 -3.77555,3.648109 v 53.399385 c 0,2.134697 1.80016,4.126015 3.77555,4.126015 h 38.72731 c 1.97539,0 3.37729,-1.991318 3.37729,-4.126015 V 42.110876 c 0,-0.573502 -0.0637,-0.987694 -0.19117,-1.513407 z m -14.94291,-9.223817 9.23975,10.115933 h -9.23975 z M 275.16667,80.041651 V 29.063714 h 20.55047 v 13.015304 c 0,2.357728 2.13471,4.508362 4.47651,4.508362 h 10.65757 v 33.454271 z"
       inkscape:connector-curvature="0"
       style="fill:#00897b;fill-opacity:1;stroke-width:0.15930605" />
    <path
       style="fill:#00897b;fill-opacity:1;stroke-width:0.15930605"
       inkscape:connector-curvature="0"
       d="m 363.38285,109.38913 c -0.11152,-0.46198 -0.31862,-0.79652 -0.55758,-1.08327 L 349.49136,93.697489 c -0.30268,-0.334545 -0.65315,-0.493849 -1.05142,-0.700948 -0.46199,-0.238956 -0.97177,-0.254888 -1.49747,-0.254888 h -25.47305 c -1.97539,0 -3.77555,1.529338 -3.77555,3.648113 v 53.399384 c 0,2.1347 1.80016,4.12602 3.77555,4.12602 h 38.72731 c 1.97539,0 3.37729,-1.99132 3.37729,-4.12602 v -38.88661 c 0,-0.5735 -0.0637,-0.98769 -0.19117,-1.51341 z m -14.94291,-9.22381 9.23975,10.11593 h -9.23975 z m -25.64827,48.668 V 97.855376 h 20.55047 v 13.015304 c 0,2.35773 2.13471,4.50836 4.47651,4.50836 h 10.65757 v 33.45428 z"
       id="path3740" />
    <g
       id="Icon_9_"
       transform="matrix(0.78622752,0,0,0.78622752,102.99659,-115.94093)"
       style="fill:#00897b;fill-opacity:1">
      <g
         id="g3807"
         style="fill:#00897b;fill-opacity:1">
        <g
           id="g3805"
           style="fill:#00897b;fill-opacity:1">
          <path
             id="path3803"
             d="M 403.001,217.001 C 388.997,148.002 328.998,96 256,96 198.002,96 148.001,128.998 123.003,177 63.002,183.002 16,233.998 16,296 16,361.996 70.004,416 136,416 H 396 C 451,416 496,371 496,315.999 496,263.002 455.003,220 403.001,217.001 Z M 396,376 H 136 c -44.004,0 -80,-35.996 -80,-80 0,-44 35.996,-80 80,-80 h 14.004 c 12.998,-46 55,-80 105.996,-80 60.996,0 110,49 110,110 v 10 h 30 c 32.998,0 60,27.003 60,60 0,32.998 -27.002,60 -60,60 z"
             inkscape:connector-curvature="0"
             style="fill:#00897b;fill-opacity:1" />
        </g>
      </g>
    </g>
    <path
       style="fill:#00897b;fill-opacity:1;stroke-width:0.15930605"
       inkscape:connector-curvature="0"
       d="m 432.79071,123.3254 c -0.11152,-0.46198 -0.31862,-0.79652 -0.55758,-1.08327 l -13.33391,-14.60837 c -0.30268,-0.33455 -0.65315,-0.49385 -1.05142,-0.70095 -0.46199,-0.23895 -0.97177,-0.25489 -1.49747,-0.25489 h -25.47305 c -1.97539,0 -3.77555,1.52934 -3.77555,3.64812 v 53.39938 c 0,2.1347 1.80016,4.12602 3.77555,4.12602 h 38.72731 c 1.97539,0 3.37729,-1.99132 3.37729,-4.12602 v -38.88661 c 0,-0.5735 -0.0637,-0.98769 -0.19117,-1.51341 z m -14.94291,-9.22381 9.23975,10.11593 h -9.23975 z m -25.64827,48.668 V 111.79165 H 412.75 v 13.0153 c 0,2.35773 2.13471,4.50836 4.47651,4.50836 h 10.65757 v 33.45428 z"
       id="path3831" />
  </g>
  <style
     id="style3416"
     type="text/css"><![CDATA[
	.st0{fill:#010101;}
]]></style>
</svg>
