<?xml version="1.0" encoding="UTF-8" standalone="no"?>
<!-- Created with Inkscape (http://www.inkscape.org/) -->

<svg
   xmlns:dc="http://purl.org/dc/elements/1.1/"
   xmlns:cc="http://creativecommons.org/ns#"
   xmlns:rdf="http://www.w3.org/1999/02/22-rdf-syntax-ns#"
   xmlns:svg="http://www.w3.org/2000/svg"
   xmlns="http://www.w3.org/2000/svg"
   xmlns:sodipodi="http://sodipodi.sourceforge.net/DTD/sodipodi-0.dtd"
   xmlns:inkscape="http://www.inkscape.org/namespaces/inkscape"
   width="2300"
   height="1600"
   viewBox="0 0 608.54165 423.33335"
   version="1.1"
   id="svg2731"
   inkscape:version="0.92.2 5c3e80d, 2017-08-06"
   sodipodi:docname="simple_management.svg">
  <defs
     id="defs2725" />
  <sodipodi:namedview
     id="base"
     pagecolor="#ffffff"
     bordercolor="#666666"
     borderopacity="1.0"
     inkscape:pageopacity="0.0"
     inkscape:pageshadow="2"
     inkscape:zoom="0.51176853"
     inkscape:cx="671.47798"
     inkscape:cy="844.46563"
     inkscape:document-units="px"
     inkscape:current-layer="layer1"
     showgrid="true"
     units="px"
     inkscape:pagecheckerboard="true"
     showborder="true"
     showguides="false"
     inkscape:guide-bbox="true">
    <inkscape:grid
       type="xygrid"
       id="grid3630" />
    <sodipodi:guide
       position="301.62499,251.35418"
       orientation="0,1"
       id="guide3632"
       inkscape:locked="false" />
  </sodipodi:namedview>
  <metadata
     id="metadata2728">
    <rdf:RDF>
      <cc:Work
         rdf:about="">
        <dc:format>image/svg+xml</dc:format>
        <dc:type
           rdf:resource="http://purl.org/dc/dcmitype/StillImage" />
        <dc:title></dc:title>
      </cc:Work>
    </rdf:RDF>
  </metadata>
  <g
     inkscape:label="Layer 1"
     inkscape:groupmode="layer"
     id="layer1"
     transform="translate(0,126.33335)"
     style="display:inline">
    <path
       id="path3589"
       d="m 143.7671,192.16325 c -0.18521,-0.76729 -0.52917,-1.32291 -0.92605,-1.79916 L 120.69543,166.1018 c -0.50271,-0.55563 -1.08479,-0.82021 -1.74625,-1.16417 -0.76729,-0.39687 -1.61396,-0.42333 -2.48708,-0.42333 H 74.155217 c -3.28083,0 -6.27062,2.54 -6.27062,6.05896 v 88.68833 c 0,3.54541 2.98979,6.85269 6.27062,6.85269 h 64.320213 c 3.28083,0 5.60917,-3.30728 5.60917,-6.85269 v -64.5848 c 0,-0.9525 -0.10584,-1.64041 -0.3175,-2.51354 z m -24.81792,-15.31937 15.34583,16.80104 h -15.34583 z m -42.597923,80.83021 v -84.66667 h 34.131253 v 21.61646 c 0,3.91583 3.54542,7.48771 7.4348,7.48771 h 17.70062 v 55.5625 z"
       inkscape:connector-curvature="0"
       style="stroke-width:0.26458335;fill:#00897b;fill-opacity:1" />
    <path
       id="path3599"
       d="m 336.7842,-115.18166 c -10.83231,0 -20.9341,3.70417 -24.23001,11.77264 -3.58325,-8.06847 -13.39718,-11.77264 -24.22975,-11.77264 -14.60526,0 -26.58163,6.87388 -26.58163,20.902092 v 0.26458 2.37993 69.851315 2.38125 h 1.64439 2.8993 1.31419 c 3.40254,-6.96753 11.70463,-11.1125 20.72349,-11.1125 10.6426,0 19.54662,7.28345 21.59449,16.93334 h 5.216 c 2.04761,-9.64989 10.97889,-16.93334 21.62228,-16.93334 9.01832,0 16.17901,3.08663 20.75101,11.1125 h 1.31418 2.89957 1.6211 v -4.49791 -69.056245 -1.05834 -0.26458 c 0,-14.028212 -11.95308,-20.902092 -26.55861,-20.902092 z m -26.35806,91.790837 c -4.7625,-6.84503 -12.89314,-11.3575 -22.0927,-11.3575 -9.1993,0 -17.06563,2.66039 -22.09271,9.50542 l -0.26459,0.14208 v -69.443325 0 -0.26459 c 0.79375,-11.066202 10.60689,-16.139582 22.30253,-16.139582 11.94911,0 21.7342,4.94982 22.05646,16.353372 -0.005,0.19288 0.004,0.38602 0.004,0.57996 l 0.0868,3.46684 z m 48.68334,-69.565825 v 67.713745 c -4.7625,-6.84503 -13.15799,-9.50542 -22.35729,-9.50542 -9.19957,0 -17.33021,4.51247 -22.09271,11.3575 v -70.359575 -0.26459 c 0,-11.671302 9.96394,-16.933332 22.11573,-16.933332 11.69537,0 21.54052,2.95672 22.33427,14.022922 v 0.26458 z"
       inkscape:connector-curvature="0"
       style="stroke-width:0.26458335;fill:#00897b;fill-opacity:1" />
    <path
       id="path3579"
       d="m 269.87501,55.699983 h -47.97637 l -11.28924,-12.7 h -36.69031 c -6.2095,0 -11.28871,5.07947 -11.28871,11.28898 v 62.088707 c 0,6.20951 5.07921,11.28898 11.28871,11.28898 h 95.95592 c 6.2095,0 11.28871,-5.07947 11.28871,-11.28898 V 66.988963 c 0,-6.20951 -5.07921,-11.28898 -11.28871,-11.28898 z m 2.82204,60.677687 c 0,1.52982 -1.29249,2.82231 -2.82204,2.82231 h -95.95592 c -1.52982,0 -2.82204,-1.29249 -2.82204,-2.82231 V 64.166653 h 98.77796 c 1.52955,0 2.82204,1.29249 2.82204,2.82231 z"
       inkscape:connector-curvature="0"
       style="display:inline;stroke-width:0.26458335;fill:#00897b;fill-opacity:1" />
    <path
       style="display:inline;stroke-width:0.26458335;fill:#00897b;fill-opacity:1"
       inkscape:connector-curvature="0"
       d="m 434.62258,55.699993 h -47.97636 l -11.28924,-12.7 h -36.6903 c -6.2095,0 -11.28871,5.07947 -11.28871,11.28898 v 62.088707 c 0,6.2095 5.07921,11.28897 11.28871,11.28897 h 95.9559 c 6.2095,0 11.28871,-5.07947 11.28871,-11.28897 V 66.988973 c 0,-6.20951 -5.07921,-11.28898 -11.28871,-11.28898 z m 2.82204,60.677687 c 0,1.52981 -1.29249,2.8223 -2.82204,2.8223 h -95.9559 c -1.52982,0 -2.82204,-1.29249 -2.82204,-2.8223 V 64.166663 h 98.77794 c 1.52955,0 2.82204,1.29249 2.82204,2.82231 z"
       id="path3609" />
    <path
       style="stroke-width:0.26458335;fill:#00897b;fill-opacity:1"
       inkscape:connector-curvature="0"
       d="m 276.27291,192.16325 c -0.18521,-0.76729 -0.52917,-1.32291 -0.92605,-1.79916 L 253.20124,166.1018 c -0.50271,-0.55563 -1.08479,-0.82021 -1.74625,-1.16417 -0.76729,-0.39687 -1.61396,-0.42333 -2.48708,-0.42333 h -42.30688 c -3.28083,0 -6.27062,2.54 -6.27062,6.05896 v 88.68833 c 0,3.54541 2.98979,6.85269 6.27062,6.85269 h 64.32021 c 3.28083,0 5.60917,-3.30728 5.60917,-6.85269 v -64.5848 c 0,-0.9525 -0.10584,-1.64041 -0.3175,-2.51354 z m -24.81792,-15.31937 15.34583,16.80104 h -15.34583 z m -42.59792,80.83021 v -84.66667 h 34.13125 v 21.61646 c 0,3.91583 3.54542,7.48771 7.4348,7.48771 h 17.70062 v 55.5625 z"
       id="path3652" />
    <path
       id="path3654"
       d="m 408.77876,192.16325 c -0.18521,-0.76729 -0.52917,-1.32291 -0.92605,-1.79916 L 385.70709,166.1018 c -0.50271,-0.55563 -1.08479,-0.82021 -1.74625,-1.16417 -0.76729,-0.39687 -1.61396,-0.42333 -2.48708,-0.42333 h -42.30688 c -3.28083,0 -6.27062,2.54 -6.27062,6.05896 v 88.68833 c 0,3.54541 2.98979,6.85269 6.27062,6.85269 h 64.32021 c 3.28083,0 5.60917,-3.30728 5.60917,-6.85269 v -64.5848 c 0,-0.9525 -0.10584,-1.64041 -0.3175,-2.51354 z m -24.81792,-15.31937 15.34583,16.80104 h -15.34583 z m -42.59792,80.83021 v -84.66667 h 34.13125 v 21.61646 c 0,3.91583 3.54542,7.48771 7.4348,7.48771 h 17.70062 v 55.5625 z"
       inkscape:connector-curvature="0"
       style="stroke-width:0.26458335;fill:#00897b;fill-opacity:1" />
    <path
       style="stroke-width:0.26458335;fill:#00897b;fill-opacity:1"
       inkscape:connector-curvature="0"
       d="m 541.28459,192.16325 c -0.18521,-0.76729 -0.52917,-1.32291 -0.92605,-1.79916 L 518.21292,166.1018 c -0.50271,-0.55563 -1.08479,-0.82021 -1.74625,-1.16417 -0.76729,-0.39687 -1.61396,-0.42333 -2.48708,-0.42333 h -42.30688 c -3.28083,0 -6.27062,2.54 -6.27062,6.05896 v 88.68833 c 0,3.54541 2.98979,6.85269 6.27062,6.85269 h 64.32021 c 3.28083,0 5.60917,-3.30728 5.60917,-6.85269 v -64.5848 c 0,-0.9525 -0.10584,-1.64041 -0.3175,-2.51354 z m -24.81792,-15.31937 15.34583,16.80104 h -15.34583 z m -42.59792,80.83021 V 173.00742 H 508 v 21.61646 c 0,3.91583 3.54542,7.48771 7.4348,7.48771 h 17.70062 v 55.5625 z"
       id="path3656" />
  </g>
  <style
     id="style3416"
     type="text/css"><![CDATA[
	.st0{fill:#010101;}
]]></style>
</svg>
