<?xml version="1.0" standalone="no"?><!DOCTYPE svg PUBLIC "-//W3C//DTD SVG 1.1//EN" "http://www.w3.org/Graphics/SVG/1.1/DTD/svg11.dtd"><svg t="1747190112225" class="icon" viewBox="0 0 1024 1024" version="1.1" xmlns="http://www.w3.org/2000/svg" p-id="2510" width="256" height="256" xmlns:xlink="http://www.w3.org/1999/xlink"><path d="M798.165333 524.501333a42.666667 42.666667 0 0 0-60.330666 0L512 750.336l-225.834667-225.834667a42.666667 42.666667 0 0 0-60.330666 60.330667l256 256a42.666667 42.666667 0 0 0 60.330666 0l256-256a42.666667 42.666667 0 0 0 0-60.330667z" p-id="2511" fill="#4d5765"></path><path d="M798.165333 225.834667a42.666667 42.666667 0 0 0-60.330666 0L512 451.669333 286.165333 225.834667a42.666667 42.666667 0 0 0-60.330666 60.330666l256 256a42.666667 42.666667 0 0 0 60.330666 0l256-256a42.666667 42.666667 0 0 0 0-60.330666z" p-id="2512" fill="#4d5765"></path></svg>
