<?xml version="1.0" standalone="no"?><!DOCTYPE svg PUBLIC "-//W3C//DTD SVG 1.1//EN" "http://www.w3.org/Graphics/SVG/1.1/DTD/svg11.dtd"><svg t="1609212036301" class="icon" viewBox="0 0 1024 1024" version="1.1" xmlns="http://www.w3.org/2000/svg" p-id="2311" width="512" height="512" xmlns:xlink="http://www.w3.org/1999/xlink"><defs><style type="text/css"></style></defs><path d="M37.415385 689.230769V177.230769c0-76.8 61.046154-137.846154 137.846153-137.846154h512c76.8 0 137.846154 61.046154 137.846154 137.846154v59.076923h-118.153846V177.230769c0-11.815385-7.876923-19.692308-19.692308-19.692307h-512c-11.815385 0-19.692308 7.876923-19.692307 19.692307v512c0 11.815385 7.876923 19.692308 19.692307 19.692308h59.076924v118.153846h-59.076924c-76.8 0-137.846154-61.046154-137.846153-137.846154z m866.461538-374.153846h-512c-43.323077 0-78.769231 35.446154-78.769231 78.769231v512c0 43.323077 35.446154 78.769231 78.769231 78.769231h512c43.323077 0 78.769231-35.446154 78.769231-78.769231V393.846154c0-43.323077-35.446154-78.769231-78.769231-78.769231z m-78.769231 496.246154c0 9.846154-5.907692 15.753846-17.723077 15.753846H578.953846c-9.846154 0-19.692308-9.846154-19.692308-17.723077v-35.446154c0-9.846154 9.846154-19.692308 19.692308-19.692307h94.523077c11.815385 0 15.753846-11.815385 9.846154-19.692308L478.523077 529.723077c-7.876923-5.907692-7.876923-17.723077 0-25.6l25.6-23.630769c5.907692-7.876923 17.723077-7.876923 23.630769 0l204.8 204.8c7.876923 7.876923 19.692308 1.969231 19.692308-9.846154v-94.523077c0-11.815385 11.815385-19.692308 21.661538-19.692308h35.446154c9.846154 0 15.753846 9.846154 15.753846 19.692308v230.4z" p-id="2312" fill="#222222"></path></svg>
